<?xml version="1.0" encoding="utf-8"?>
<!-- Generator: Adobe Illustrator 16.0.0, SVG Export Plug-In . SVG Version: 6.00 Build 0)  -->
<!DOCTYPE svg PUBLIC "-//W3C//DTD SVG 1.1//EN" "http://www.w3.org/Graphics/SVG/1.1/DTD/svg11.dtd">
<svg version="1.1" id="Layer_1" xmlns="http://www.w3.org/2000/svg" xmlns:xlink="http://www.w3.org/1999/xlink" x="0px" y="0px"
	 width="463.043px" height="142.279px" viewBox="0 0 463.043 142.279" enable-background="new 0 0 463.043 142.279"
	 xml:space="preserve">
<g>
	<defs>
		<rect id="SVGID_1_" width="463.043" height="142.279"/>
	</defs>
	<clipPath id="SVGID_2_">
		<use xlink:href="#SVGID_1_"  overflow="visible"/>
	</clipPath>
	<path clip-path="url(#SVGID_2_)" fill="#0D4D96" d="M437.198,45.459c0.001-8.298-6.728-15.025-15.024-15.025
		c-8.299,0-15.025,6.727-15.025,15.025c0,8.297,6.727,15.024,15.025,15.025C430.471,60.484,437.198,53.757,437.198,45.459"/>
	<path clip-path="url(#SVGID_2_)" fill="#0D4D96" d="M407.148,97.146c0,8.298,6.727,15.025,15.024,15.025
		c8.299,0,15.025-6.728,15.025-15.025c0-8.297-6.727-15.023-15.025-15.024C413.875,82.122,407.148,88.848,407.148,97.146"/>
	<path clip-path="url(#SVGID_2_)" fill="#E11F26" d="M448.018,86.328c8.298,0,15.024-6.727,15.024-15.024
		c0-8.298-6.727-15.025-15.024-15.025s-15.025,6.727-15.025,15.025C432.992,79.601,439.72,86.328,448.018,86.328"/>
	<path clip-path="url(#SVGID_2_)" fill="#E11F26" d="M396.329,56.277c-8.298,0-15.025,6.727-15.025,15.025
		c0,8.298,6.728,15.024,15.025,15.024s15.024-6.727,15.024-15.024C411.354,63.004,404.627,56.277,396.329,56.277"/>
	<path clip-path="url(#SVGID_2_)" fill="#BABCBE" d="M211.385,60.82h-7.275c-2.279,0-4.125-1.847-4.125-4.125v-7.276
		c0-2.278-1.847-4.124-4.124-4.124h-12.39c-2.278,0-4.125,1.846-4.125,4.124v7.276c0,2.278-1.846,4.125-4.124,4.125h-7.276
		c-2.278,0-4.124,1.846-4.124,4.125v12.389c0,2.278,1.846,4.124,4.124,4.124h7.276c2.278,0,4.124,1.847,4.124,4.125v7.276
		c0,2.276,1.847,4.124,4.125,4.124h12.39c2.277,0,4.124-1.848,4.124-4.124v-7.276c0-2.278,1.846-4.125,4.125-4.125h7.275
		c2.278,0,4.125-1.846,4.125-4.124V64.945C215.51,62.667,213.663,60.82,211.385,60.82"/>
	<path clip-path="url(#SVGID_2_)" fill="#FFFFFF" d="M56.709,22.243c-13.827,0-22.845,5.21-22.845,14.629
		c0,30.66,75.748,14.227,75.548,64.726c0,25.049-22.043,40.48-52.903,40.48c-21.048,0-40.999-8.222-55.319-20.479
		c-1.181-1.011-1.53-2.692-0.834-4.085l7.118-14.233c0.973-1.949,3.5-2.457,5.178-1.069c13.827,11.43,30.332,17.622,44.257,17.622
		c16.433,0,26.252-6.212,26.252-17.033c0-31.261-75.749-13.828-75.749-63.724C7.412,15.03,28.053,0,58.513,0
		c17.064,0,33.778,5.089,46.529,12.805c1.476,0.893,2.03,2.762,1.295,4.322L99.354,31.95c-0.834,1.77-2.993,2.448-4.702,1.495
		C80.489,25.546,66.601,22.243,56.709,22.243"/>
	<path clip-path="url(#SVGID_2_)" fill="#FFFFFF" d="M228.405,60.765h13.897c1.862,0,3.372,1.509,3.372,3.371v58.208
		c0,1.068-0.499,2.085-1.364,2.712c-14.187,10.268-34.51,17.224-53.143,17.224c-41.482,0-73.744-31.061-73.744-71.139
		s32.664-70.739,75.147-70.739c18.837,0,37.675,6.729,51.353,17.525c1.443,1.139,1.687,3.238,0.564,4.695l-9.257,12.019
		c-1.17,1.52-3.352,1.737-4.836,0.523c-10.551-8.626-24.357-13.721-37.824-13.721c-28.656,0-51.101,21.844-51.101,49.698
		c0,28.054,22.645,49.897,51.301,49.897c10.42,0,22.243-3.606,32.263-9.619V64.136C225.034,62.274,226.544,60.765,228.405,60.765"/>
	<path clip-path="url(#SVGID_2_)" fill="#FFFFFF" d="M357.689,109.615h-70.738l-12.555,29.607c-0.529,1.246-1.751,2.055-3.104,2.055
		h-17.244c-2.437,0-4.067-2.504-3.084-4.732L309.91,3.012c0.538-1.222,1.748-2.01,3.084-2.01h19.846c1.34,0,2.552,0.793,3.089,2.021
		l58.373,133.533c0.973,2.227-0.658,4.721-3.089,4.721h-17.865c-1.354,0-2.575-0.809-3.104-2.055L357.689,109.615z M348.672,88.574
		L322.22,26.252l-26.451,62.322H348.672z"/>
</g>
</svg>
