<?xml version="1.0" encoding="UTF-8"?>
<svg width="260px" height="80px" viewBox="0 0 260 80" version="1.1" xmlns="http://www.w3.org/2000/svg" xmlns:xlink="http://www.w3.org/1999/xlink">
    <!-- Generator: Sketch 52.6 (67491) - http://www.bohemiancoding.com/sketch -->
    <title>Artboard</title>
    <desc>Created with Sketch.</desc>
    <g id="Artboard" stroke="none" stroke-width="1" fill="none" fill-rule="evenodd">
        <g id="WeAreDevelopers_RGB_BlackBG" transform="translate(1.000000, 1.000000)" fill="#FF164C">
            <polygon id="Path" points="257 30.3309432 177 0 177 18.8869277 232.869565 38.9784887 177 59.0700496 177 78 257 47.6690568 257 47.6690568"></polygon>
            <polygon id="Path" points="116.875519 0 97.0134855 54.4856056 77.1514523 0 77.1514523 0 58.6078838 0 58.5228216 0 58.4377593 0 38.5757261 54.4856056 18.7136929 0 0 0 29.9844398 77.9576317 30.026971 78 47.1244813 78 47.1244813 77.9576317 67.7946058 24.3193916 88.4221992 77.9576317 88.4221992 78 105.562241 78 105.562241 77.9576317 126.189834 24.3193916 146.859959 78 164 78 135.54668 0"></polygon>
        </g>
    </g>
</svg>