<?xml version="1.0" encoding="utf-8"?>
<!-- Generator: Adobe Illustrator 19.0.0, SVG Export Plug-In . SVG Version: 6.00 Build 0)  -->
<svg version="1.1" id="Layer_1" xmlns="http://www.w3.org/2000/svg" xmlns:xlink="http://www.w3.org/1999/xlink" x="0px" y="0px"
	 viewBox="-172 389.9 250 62" style="enable-background:new -172 389.9 250 62;" xml:space="preserve">
<style type="text/css">
	.st0{fill:#422611;stroke:#211309;stroke-width:3;stroke-miterlimit:10;}
	.st1{fill:url(#XMLID_4_);stroke:#211309;stroke-width:3;stroke-miterlimit:10;}
	.st2{fill:none;stroke:#442610;stroke-width:2;stroke-miterlimit:10;}
	.st3{fill:none;stroke:#211309;stroke-width:3;stroke-miterlimit:10;}
	.st4{fill:url(#XMLID_5_);}
	.st5{fill:url(#XMLID_6_);}
	.st6{fill:url(#XMLID_7_);}
	.st7{fill:url(#XMLID_8_);}
	.st8{fill:url(#XMLID_9_);}
	.st9{fill:url(#XMLID_10_);}
	.st10{fill:url(#XMLID_11_);}
</style>
<g>
	<g id="XMLID_1671_">
		<g id="XMLID_1668_">
			<path id="XMLID_1670_" class="st0" d="M68.5,449.9h-230c-4.1,0-7.5-3.4-7.5-7.5v-43c0-4.1,3.4-7.5,7.5-7.5h230
				c4.1,0,7.5,3.4,7.5,7.5v43C76,446.5,72.5,449.9,68.5,449.9z"/>
			
				<linearGradient id="XMLID_4_" gradientUnits="userSpaceOnUse" x1="-46.5" y1="438.6103" x2="-46.5" y2="392.1098" gradientTransform="matrix(1 0 0 1 0 -0.22)">
				<stop  offset="0" style="stop-color:#51301A"/>
				<stop  offset="1" style="stop-color:#693B1D"/>
			</linearGradient>
			<path id="XMLID_1669_" class="st1" d="M68.5,438.4h-230c-4.1,0-7.5-3.4-7.5-7.5v-31.5c0-4.1,3.4-7.5,7.5-7.5h230
				c4.1,0,7.5,3.4,7.5,7.5v31.5C76,435,72.5,438.4,68.5,438.4z"/>
		</g>
		<g id="XMLID_1230_">
			<path id="XMLID_2255_" class="st2" d="M-30,391.9c22.7,2,45.4,2.2,68.1,3.4c9.5,0.5,19.1,0.9,28.3-0.7c2.4-0.4,4.1-0.7,6.5-1.3
				c-1.3-0.8-2.2-1.4-4-1.4C68.8,391.9-30,391.9-30,391.9z"/>
			<path id="XMLID_2256_" class="st2" d="M38,395.3c-22.7-1.2-45.4-1.4-68.1-3.4h-82.1c-2.6,2-5.2,2-7.8,2.9
				c-13.6,4.9-29.7,5-44.6,5.4c-1.6,0-4.4,0-5.4,0v8.5c12,0.8,25.2,2,37.5,1.2c14.5-1,28.9-4.7,43.4-5.1c16.9-0.4,34,3.9,50.7,1.9
				c11.5-1.3,22.5-5.6,34.1-5.5c6.2,0,11.6,1.3,17.7,2.1c20.2,2.7,40.7,0.5,61.7-3.3v-2.5c0-1.7-1.5-2.5-2.5-4.2
				c-2.4,0.6-4.1,0.8-6.5,1.2C56.8,396.1,47.5,395.8,38,395.3z"/>
			<path id="XMLID_2257_" class="st2" d="M68.8,438.9c2.1,0,4-0.7,5.4-1.8c-11.2,0.3-22.4,0.8-33.7,1.8H68.8z"/>
			<path id="XMLID_2258_" class="st2" d="M-55.8,423c-9.9,0-19.7-1.5-29.6-2.6c-16.8-1.8-34.4-2-51.3-2.2
				c-10.9-0.1-22.3-0.3-33.3-0.4v5.8c2,0.1,5.9,0.3,8.5,0.4c40.2,2.3,80.2,3.9,120.4,1.3c37.8-2.4,77.1-8.4,116.1-9.2v-8.8
				c-33,1.8-64.7,5.6-96.8,11.3C-33.3,420.6-44,422.9-55.8,423z"/>
			<path id="XMLID_2260_" class="st2" d="M13.5,403.3c-6.1-0.8-11.8-2.1-18-2.1c-11.6,0-22.3,4.2-33.8,5.5
				c-16.7,2-33.5-2.3-50.4-1.9c-14.5,0.3-29.2,4.1-43.7,5.1c-12.3,0.8-25.4-0.4-37.4-1.2v9.2c11,0.1,22.4,0.3,33.3,0.4
				c16.9,0.2,34.2,0.4,51,2.2c9.8,1,19.8,2.6,29.7,2.6c11.7,0,22.7-2.3,34.1-4.4c32-5.8,63.8-9.6,96.8-11.4v-7.2
				C54,403.8,33.5,406,13.5,403.3z"/>
			<path id="XMLID_2261_" class="st2" d="M5,430.7c-14.8,2.4-29,5.2-43.7,8.2h79.1c11.3-1,21.9-2,33-2.3c1.3-1.1,1.4-3,1.4-4.6v-8.4
				C51,423,27,427.1,5,430.7z"/>
			<path id="XMLID_2262_" class="st2" d="M-161.5,424.1c-2.6-0.1-6.5-0.3-8.5-0.4v8.3c0,3.3,4.7,6.9,8.8,6.9h122.5
				c14.7-3,28.9-5.8,43.7-8.2c21.9-3.6,46-7.7,70-7.1v-7.3c-39,0.8-78.3,6.8-116.1,9.2C-81.3,428-121.3,426.4-161.5,424.1z"/>
			<path id="XMLID_2263_" class="st2" d="M-120,394.8c2.6-1,5.2-0.9,7.8-2.9h-49c-3.9,0-7.8,2.4-8.8,5.6v2.7c1,0,3.8,0,5.4,0
				C-149.7,399.9-133.5,399.8-120,394.8z"/>
		</g>
		<g id="XMLID_1654_">
			<path id="XMLID_1656_" class="st3" d="M68.5,449.9h-230c-4.1,0-7.5-3.4-7.5-7.5v-43c0-4.1,3.4-7.5,7.5-7.5h230
				c4.1,0,7.5,3.4,7.5,7.5v43C76,446.5,72.5,449.9,68.5,449.9z"/>
			<path id="XMLID_1655_" class="st3" d="M68.5,438.4h-230c-4.1,0-7.5-3.4-7.5-7.5v-31.5c0-4.1,3.4-7.5,7.5-7.5h230
				c4.1,0,7.5,3.4,7.5,7.5v31.5C76,435,72.5,438.4,68.5,438.4z"/>
		</g>
	</g>
	<g>
		<g id="XMLID_2_">
			
				<linearGradient id="XMLID_5_" gradientUnits="userSpaceOnUse" x1="-113.9" y1="412.98" x2="-113.9" y2="438.2801" gradientTransform="matrix(1 0 0 -1 0 841.67)">
				<stop  offset="1.685399e-002" style="stop-color:#FBC536"/>
				<stop  offset="0.4373" style="stop-color:#FCD15F"/>
				<stop  offset="0.7942" style="stop-color:#FDD97B"/>
				<stop  offset="1" style="stop-color:#FDDC86"/>
			</linearGradient>
			<path id="XMLID_44_" class="st4" d="M-104.8,404.8c0.4,0.1,0.6,0.9,0.7,1.3c0.2,0.6,0.5,2.8,0.5,3.9c0,0.4-0.3,0.6-0.6,0.6
				c-0.3,0-0.8-0.5-1.3-1.6c-1.5-2.8-4.5-3.8-7.6-3.8c-5.3,0-9.1,5-9.1,10.4c0,5.8,3.9,11.3,9.6,11.3c2.1,0,5.2-0.8,5.2-1.5v-4.8
				c0-0.8-1.3-1.3-2.2-1.6c-1.2-0.4-1.9-0.6-1.9-1.2c0-0.4,0.4-0.6,0.8-0.6c1,0,4,0.2,5.4,0.2c1.3,0,2.5-0.2,3.5-0.2
				c0.5,0,0.8,0.3,0.8,0.8c0,0.2-0.4,0.7-1,0.9c-0.6,0.2-1.8,0.7-1.8,1.6v4.2c0,0.9,1.1,1.4,1.1,1.8c0,0.9-7.6,2.2-11.7,2.2
				c-6.4,0-12.4-5.3-12.4-11.7c0-8,6.8-13.6,14.9-13.6C-108.2,403.4-107.5,404-104.8,404.8z"/>
			
				<linearGradient id="XMLID_6_" gradientUnits="userSpaceOnUse" x1="-94.65" y1="413.88" x2="-94.65" y2="439.78" gradientTransform="matrix(1 0 0 -1 0 841.67)">
				<stop  offset="1.685399e-002" style="stop-color:#FBC536"/>
				<stop  offset="0.4373" style="stop-color:#FCD15F"/>
				<stop  offset="0.7942" style="stop-color:#FDD97B"/>
				<stop  offset="1" style="stop-color:#FDDC86"/>
			</linearGradient>
			<path id="XMLID_36_" class="st5" d="M-98,413.6c-0.4-0.2-0.8-0.4-0.8-0.8s0.6-0.8,1.2-1c0.4-0.2,3.8-1.6,4.2-1.6
				c0.5,0,0.5,0.4,0.5,1.2v12c0,1,0.4,2.2,1.5,2.6c1.1,0.3,1.7,0.6,1.7,1s-0.3,0.8-1.4,0.8c-0.9,0-2.9-0.2-3.5-0.2
				c-0.8,0-2.7,0.2-3.6,0.2c-1,0-1.4-0.4-1.4-0.8s0.7-0.7,1.8-1s1.5-1.6,1.5-2.6v-7.8C-96.4,415-97,414-98,413.6z M-92.7,404.1
				c0,1.2-1,2.2-2.2,2.2s-2.2-1-2.2-2.2s1-2.2,2.2-2.2S-92.7,402.9-92.7,404.1z"/>
			
				<linearGradient id="XMLID_7_" gradientUnits="userSpaceOnUse" x1="-82.85" y1="413.6372" x2="-82.85" y2="433.354" gradientTransform="matrix(1 0 0 -1 0 841.67)">
				<stop  offset="1.685399e-002" style="stop-color:#FBC536"/>
				<stop  offset="0.4373" style="stop-color:#FCD15F"/>
				<stop  offset="0.7942" style="stop-color:#FDD97B"/>
				<stop  offset="1" style="stop-color:#FDDC86"/>
			</linearGradient>
			<path id="XMLID_43_" class="st6" d="M-86.1,423.5V414c0-0.4,0.2-0.6-1.2-0.6c-0.4,0-1.3-0.2-1.3-0.6c0-0.6,1.7-1.7,2.7-2.5
				c0.6-0.5,2.1-2,2.6-2s0.6,0.3,0.6,1v1.1c0,0.4,0.4,0.6,0.9,0.6h3.9c0.6,0,0.8,0.5,0.8,0.9s-0.4,1.4-1,1.4h-4
				c-0.5,0-0.6,0.2-0.6,0.8v7.5c0,2.8,0.7,3.7,2.1,3.7c1.5,0,2.5-0.7,2.9-0.7s0.6,0.2,0.6,0.6c0,0.9-2.2,2.9-4.6,2.9
				C-84.1,428-86.1,426.9-86.1,423.5z"/>
			
				<linearGradient id="XMLID_8_" gradientUnits="userSpaceOnUse" x1="-61.6" y1="413.88" x2="-61.6" y2="437.5958" gradientTransform="matrix(1 0 0 -1 0 841.67)">
				<stop  offset="1.685399e-002" style="stop-color:#FBC536"/>
				<stop  offset="0.4373" style="stop-color:#FCD15F"/>
				<stop  offset="0.7942" style="stop-color:#FDD97B"/>
				<stop  offset="1" style="stop-color:#FDDC86"/>
			</linearGradient>
			<path id="XMLID_31_" class="st7" d="M-67.5,423c0,1.5,0.1,2.3,1.5,2.9c0.9,0.4,2.2,0.6,2.2,1.2c0,0.4-0.8,0.6-1.3,0.7
				c-0.3,0-2.5-0.2-4.4-0.2s-4.2,0.2-4.5,0.2c-0.4,0-1.3-0.3-1.3-0.7c0-0.6,1.3-0.8,2.2-1.2c1.4-0.6,1.9-1.4,1.9-2.9v-14.6
				c0-2.3-1-2.3-3.3-3c-0.4-0.1-0.6-0.3-0.6-0.7c0-0.5,0.8-0.7,1.4-0.7c1.6,0,3,0.2,4.4,0.2s2.6-0.2,4-0.2c0.6,0,1.4,0.2,1.4,0.7
				c0,0.4-0.2,0.6-0.6,0.7c-2.3,0.6-2.9,0.7-2.9,3v5.9c0,0.2,0.1,0.4,0.5,0.4h10.6c0.4,0,0.5-0.1,0.5-0.5v-5.8c0-2.3-0.6-2.3-2.9-3
				c-0.4-0.1-0.6-0.3-0.6-0.7c0-0.5,0.8-0.7,1.4-0.7c1.6,0,2.6,0.2,4,0.2s3-0.2,4.4-0.2c0.6,0,1.4,0.2,1.4,0.7
				c0,0.4-0.2,0.6-0.6,0.7c-2.3,0.6-3.3,0.7-3.3,3V423c0,1.5,0.5,2.3,1.9,2.9c0.9,0.4,2.2,0.6,2.2,1.2c0,0.4-0.8,0.6-1.3,0.7
				c-0.3,0-2.9-0.2-4.8-0.2c-1.9,0-3.8,0.2-4.1,0.2c-0.4,0-1.3-0.3-1.3-0.7c0-0.6,1.3-0.8,2.2-1.2c1.4-0.6,1.5-1.4,1.5-2.9v-5.9
				c0-0.4-0.2-0.4-0.6-0.4h-10.5c-0.4,0-0.6,0-0.6,0.4v5.9H-67.5z"/>
			
				<linearGradient id="XMLID_9_" gradientUnits="userSpaceOnUse" x1="-37.6" y1="413.48" x2="-37.6" y2="431.1568" gradientTransform="matrix(1 0 0 -1 0 841.67)">
				<stop  offset="1.685399e-002" style="stop-color:#FBC536"/>
				<stop  offset="0.4373" style="stop-color:#FCD15F"/>
				<stop  offset="0.7942" style="stop-color:#FDD97B"/>
				<stop  offset="1" style="stop-color:#FDDC86"/>
			</linearGradient>
			<path id="XMLID_24_" class="st8" d="M-36.6,412.9c-0.5-0.1-0.9-0.3-0.9-0.8c0-0.4,0.6-0.9,1.2-1c1.4-0.2,4.1-0.6,4.5-0.6
				c0.5,0,0.5,0.3,0.5,1.1V425c0,0.4,0.2,0.5,0.6,0.5c0.5,0,1.4-0.2,1.7-0.2c0.2,0,0.5,0.4,0.5,0.6c0,0.5-0.4,0.8-0.7,1
				c-0.7,0.4-4,1.3-4.6,1.3c-0.3,0-0.5-0.4-0.6-0.6c-0.1-0.4-0.1-1-0.2-1.5c-0.2-0.7-0.3-0.5-0.8,0c-1.8,1.4-3.1,1.8-5.4,1.8
				s-4-2.6-4-4.9v-7.9c0-0.7-0.1-1.6-1.1-2c-0.4-0.2-0.8-0.5-0.8-0.9s0.5-0.8,1.1-0.8c1.6-0.3,3.3-0.8,3.7-0.8
				c0.5,0,0.5,0.3,0.5,1.1v10.1c0,1.9,1,3.7,2.8,3.7c2.2,0,4-1.3,4-3.1v-7.6C-34.8,413.6-35.5,413.1-36.6,412.9z"/>
			
				<linearGradient id="XMLID_10_" gradientUnits="userSpaceOnUse" x1="-18.3" y1="413.6372" x2="-18.3" y2="441.1928" gradientTransform="matrix(1 0 0 -1 0 841.67)">
				<stop  offset="1.685399e-002" style="stop-color:#FBC536"/>
				<stop  offset="0.4373" style="stop-color:#FCD15F"/>
				<stop  offset="0.7942" style="stop-color:#FDD97B"/>
				<stop  offset="1" style="stop-color:#FDDC86"/>
			</linearGradient>
			<path id="XMLID_264_" class="st9" d="M-26.6,403.2c-0.4-0.2-0.9-0.5-0.9-0.9s0.6-0.8,1.2-0.8c1.6-0.3,3.8-1,4.2-1
				c0.5,0,0.5,0.3,0.5,1.1v10c0,0.6,0.2,0.6,0.8,0.2c0.7-0.5,2.4-1.2,4.6-1.2c4.1,0,7.1,4.2,7.1,8.2c0,5-4.1,9.3-9.2,9.3
				c-4,0-6.7-1.7-6.7-2.3v-20.6C-25,404.3-25.7,403.6-26.6,403.2z M-21.7,422.8c0,2,1.5,3.4,4.6,3.4c2.9,0,4.2-2.8,4.2-6.1
				c0-3.6-1.9-7.4-5.5-7.4c-2.3,0-3.3,1.6-3.3,1.8V422.8z"/>
		</g>
		
			<linearGradient id="XMLID_11_" gradientUnits="userSpaceOnUse" x1="19.7" y1="414.7065" x2="19.7" y2="440.1235" gradientTransform="matrix(1 0 0 -1 0 841.67)">
			<stop  offset="1.685399e-002" style="stop-color:#FBC536"/>
			<stop  offset="0.4373" style="stop-color:#FCD15F"/>
			<stop  offset="0.7942" style="stop-color:#FDD97B"/>
			<stop  offset="1" style="stop-color:#FDDC86"/>
		</linearGradient>
		<path id="XMLID_3_" class="st10" d="M19.7,401.6c-7.2,0-13.1,5.9-13.1,13.1c0,5.8,3.7,10.6,8.9,12.3c0.7,0.1,0.9-0.3,0.9-0.6v-2.2
			c-3.7,0.8-4.4-1.7-4.4-1.7c-0.6-1.4-1.4-1.9-1.4-1.9c-1.2-0.8,0.1-0.8,0.1-0.8c1.3,0.1,2,1.3,2,1.3c1.2,2,3.1,1.3,3.8,1.1
			c0.1-0.9,0.5-1.3,0.9-1.7c-2.9-0.4-5.9-1.4-5.9-6.4c0-1.3,0.5-2.6,1.3-3.5c-0.2-0.4-0.6-1.6,0.1-3.5c0,0,1.2-0.4,3.6,1.3
			c1.1-0.3,2.2-0.5,3.3-0.5c1.2,0,2.2,0.2,3.3,0.5c2.5-1.6,3.6-1.3,3.6-1.3c0.7,1.8,0.3,3.2,0.1,3.5c0.9,0.9,1.3,2.1,1.3,3.5
			c0,5-3.1,6.1-5.9,6.4c0.5,0.5,0.9,1.2,0.9,2.4v3.6c0,0.4,0.3,0.8,0.9,0.6c5.2-1.7,8.8-6.6,8.8-12.3
			C32.7,407.4,26.9,401.6,19.7,401.6z"/>
	</g>
</g>
</svg>
