<?xml version="1.0" encoding="utf-8"?>
<!-- Generator: Adobe Illustrator 19.0.0, SVG Export Plug-In . SVG Version: 6.00 Build 0)  -->
<svg version="1.1" id="Layer_1" xmlns="http://www.w3.org/2000/svg" xmlns:xlink="http://www.w3.org/1999/xlink" x="0px" y="0px"
	 viewBox="-16 -3.3 250 62" style="enable-background:new -16 -3.3 250 62;" xml:space="preserve">
<style type="text/css">
	.st0{fill:#422611;stroke:#211309;stroke-width:3;stroke-miterlimit:10;}
	.st1{fill:url(#XMLID_2_);stroke:#211309;stroke-width:3;stroke-miterlimit:10;}
	.st2{fill:none;stroke:#442610;stroke-width:2;stroke-miterlimit:10;}
	.st3{fill:none;stroke:#211309;stroke-width:3;stroke-miterlimit:10;}
	.st4{fill:url(#SVGID_1_);}
	.st5{fill:url(#SVGID_2_);}
	.st6{fill:url(#SVGID_3_);}
	.st7{fill:url(#SVGID_4_);}
	.st8{fill:url(#SVGID_5_);}
	.st9{fill:url(#SVGID_6_);}
	.st10{fill:url(#SVGID_7_);}
	.st11{fill:url(#SVGID_8_);}
	.st12{fill:url(#SVGID_9_);}
</style>
<g>
	<g id="XMLID_1671_">
		<g id="XMLID_1668_">
			<path id="XMLID_1670_" class="st0" d="M224.5,56.7h-230c-4.1,0-7.5-3.4-7.5-7.5v-43c0-4.1,3.4-7.5,7.5-7.5h230
				c4.1,0,7.5,3.4,7.5,7.5v43C232,53.3,228.5,56.7,224.5,56.7z"/>
			
				<linearGradient id="XMLID_2_" gradientUnits="userSpaceOnUse" x1="109.5" y1="8.66" x2="109.5" y2="55.16" gradientTransform="matrix(1 0 0 -1 0 53.85)">
				<stop  offset="0" style="stop-color:#51301A"/>
				<stop  offset="1" style="stop-color:#693B1D"/>
			</linearGradient>
			<path id="XMLID_1669_" class="st1" d="M224.5,45.2h-230c-4.1,0-7.5-3.4-7.5-7.5V6.2c0-4.1,3.4-7.5,7.5-7.5h230
				c4.1,0,7.5,3.4,7.5,7.5v31.5C232,41.8,228.5,45.2,224.5,45.2z"/>
		</g>
		<g id="XMLID_1230_">
			<path id="XMLID_2255_" class="st2" d="M126-1.3c22.7,2,45.4,2.2,68.1,3.4c9.5,0.5,19.1,0.9,28.3-0.7c2.4-0.4,4.1-0.7,6.5-1.3
				c-1.3-0.8-2.2-1.4-4-1.4C224.8-1.3,126-1.3,126-1.3z"/>
			<path id="XMLID_2256_" class="st2" d="M194,2.1c-22.7-1.2-45.4-1.4-68.1-3.4H43.8c-2.6,2-5.2,2-7.8,2.9C22.4,6.5,6.3,6.6-8.6,7
				C-10.2,7-13,7-14,7v8.5c12,0.8,25.2,2,37.5,1.2c14.5-1,28.9-4.7,43.4-5.1c16.9-0.4,34,3.9,50.7,1.9c11.5-1.3,22.5-5.6,34.1-5.5
				c6.2,0,11.6,1.3,17.7,2.1c20.2,2.7,40.7,0.5,61.7-3.3V4.3c0-1.7-1.5-2.5-2.5-4.2c-2.4,0.6-4.1,0.8-6.5,1.2
				C212.8,2.9,203.5,2.6,194,2.1z"/>
			<path id="XMLID_2257_" class="st2" d="M224.8,45.7c2.1,0,4-0.7,5.4-1.8c-11.2,0.3-22.4,0.8-33.7,1.8H224.8z"/>
			<path id="XMLID_2258_" class="st2" d="M100.2,29.8c-9.9,0-19.7-1.5-29.6-2.6c-16.8-1.8-34.4-2-51.3-2.2C8.4,24.9-3,24.7-14,24.6
				v5.8c2,0.1,5.9,0.3,8.5,0.4c40.2,2.3,80.2,3.9,120.4,1.3c37.8-2.4,77.1-8.4,116.1-9.2v-8.8c-33,1.8-64.7,5.6-96.8,11.3
				C122.7,27.4,112,29.7,100.2,29.8z"/>
			<path id="XMLID_2260_" class="st2" d="M169.5,10.1c-6.1-0.8-11.8-2.1-18-2.1c-11.6,0-22.3,4.2-33.8,5.5
				c-16.7,2-33.5-2.3-50.4-1.9c-14.5,0.3-29.2,4.1-43.7,5.1c-12.3,0.8-25.4-0.4-37.4-1.2v9.2c11,0.1,22.4,0.3,33.3,0.4
				c16.9,0.2,34.2,0.4,51,2.2c9.8,1,19.8,2.6,29.7,2.6c11.7,0,22.7-2.3,34.1-4.4c32-5.8,63.8-9.6,96.8-11.4V6.9
				C210,10.6,189.5,12.8,169.5,10.1z"/>
			<path id="XMLID_2261_" class="st2" d="M161,37.5c-14.8,2.4-29,5.2-43.7,8.2h79.1c11.3-1,21.9-2,33-2.3c1.3-1.1,1.4-3,1.4-4.6
				v-8.4C207,29.8,183,33.9,161,37.5z"/>
			<path id="XMLID_2262_" class="st2" d="M-5.5,30.9c-2.6-0.1-6.5-0.3-8.5-0.4v8.3c0,3.3,4.7,6.9,8.8,6.9h122.5
				c14.7-3,28.9-5.8,43.7-8.2c21.9-3.6,46-7.7,70-7.1v-7.3c-39,0.8-78.3,6.8-116.1,9.2C74.7,34.8,34.7,33.2-5.5,30.9z"/>
			<path id="XMLID_2263_" class="st2" d="M36,1.6c2.6-1,5.2-0.9,7.8-2.9h-49c-3.9,0-7.8,2.4-8.8,5.6V7c1,0,3.8,0,5.4,0
				C6.3,6.7,22.5,6.6,36,1.6z"/>
		</g>
		<g id="XMLID_1654_">
			<path id="XMLID_1656_" class="st3" d="M224.5,56.7h-230c-4.1,0-7.5-3.4-7.5-7.5v-43c0-4.1,3.4-7.5,7.5-7.5h230
				c4.1,0,7.5,3.4,7.5,7.5v43C232,53.3,228.5,56.7,224.5,56.7z"/>
			<path id="XMLID_1655_" class="st3" d="M224.5,45.2h-230c-4.1,0-7.5-3.4-7.5-7.5V6.2c0-4.1,3.4-7.5,7.5-7.5h230
				c4.1,0,7.5,3.4,7.5,7.5v31.5C232,41.8,228.5,45.2,224.5,45.2z"/>
		</g>
	</g>
</g>
<g>
	<g>
		<linearGradient id="SVGID_1_" gradientUnits="userSpaceOnUse" x1="156.3481" y1="17.7613" x2="156.3481" y2="17.7611">
			<stop  offset="1.685399e-002" style="stop-color:#FBC536"/>
			<stop  offset="0.4373" style="stop-color:#FCD15F"/>
			<stop  offset="0.7942" style="stop-color:#FDD97B"/>
			<stop  offset="1" style="stop-color:#FDDC86"/>
		</linearGradient>
		<polygon class="st4" points="156.3,17.8 156.3,17.8 156.3,17.8 		"/>
		<linearGradient id="SVGID_2_" gradientUnits="userSpaceOnUse" x1="168.9874" y1="35.0924" x2="168.9874" y2="6.9199">
			<stop  offset="1.685399e-002" style="stop-color:#FBC536"/>
			<stop  offset="0.4373" style="stop-color:#FCD15F"/>
			<stop  offset="0.7942" style="stop-color:#FDD97B"/>
			<stop  offset="1" style="stop-color:#FDDC86"/>
		</linearGradient>
		<path class="st5" d="M183.4,17.8L183.4,17.8L183.4,17.8L183.4,17.8L183.4,17.8L180,7.3c-0.2-0.5-0.9-0.5-1.1,0l-3.4,10.4h0l0,0
			h-11.3l0,0h0l-3.4-10.4c-0.2-0.5-0.9-0.5-1.1,0l-3.4,10.4h0l0,0l0,0h0l13.5,17.3l0,0l-13.5-17.3l-1.7,5.3c-0.2,0.5,0,1,0.4,1.3
			l14.8,10.8l0,0h0l0,0L183.4,17.8z"/>
		<linearGradient id="SVGID_3_" gradientUnits="userSpaceOnUse" x1="177.5175" y1="35.0924" x2="177.5175" y2="17.7611">
			<stop  offset="1.685399e-002" style="stop-color:#FBC536"/>
			<stop  offset="0.4373" style="stop-color:#FCD15F"/>
			<stop  offset="0.7942" style="stop-color:#FDD97B"/>
			<stop  offset="1" style="stop-color:#FDDC86"/>
		</linearGradient>
		<path class="st6" d="M185.1,23l-1.7-5.3v0l-13.5,17.3l14.8-10.8C185.1,24,185.3,23.5,185.1,23z"/>
	</g>
	<g>
		<linearGradient id="SVGID_4_" gradientUnits="userSpaceOnUse" x1="45.7141" y1="35.3299" x2="45.7141" y2="10.0535">
			<stop  offset="1.685399e-002" style="stop-color:#FBC536"/>
			<stop  offset="0.4373" style="stop-color:#FCD15F"/>
			<stop  offset="0.7942" style="stop-color:#FDD97B"/>
			<stop  offset="1" style="stop-color:#FDDC86"/>
		</linearGradient>
		<path class="st7" d="M54.8,11.4c0.4,0.1,0.6,0.9,0.7,1.3c0.2,0.6,0.5,2.8,0.5,3.9c0,0.4-0.3,0.6-0.6,0.6c-0.3,0-0.8-0.5-1.3-1.6
			c-1.5-2.8-4.5-3.8-7.6-3.8c-5.3,0-9.1,5-9.1,10.4c0,5.8,3.9,11.3,9.6,11.3c2.1,0,5.2-0.8,5.2-1.5v-4.8c0-0.8-1.3-1.3-2.2-1.6
			c-1.2-0.4-1.9-0.6-1.9-1.2c0-0.4,0.4-0.6,0.8-0.6c1,0,4,0.2,5.4,0.2c1.3,0,2.5-0.2,3.5-0.2c0.5,0,0.8,0.3,0.8,0.8
			c0,0.2-0.4,0.7-1,0.9c-0.6,0.2-1.8,0.7-1.8,1.6v4.2c0,0.9,1.1,1.4,1.1,1.8c0,0.9-7.6,2.2-11.7,2.2c-6.4,0-12.4-5.3-12.4-11.7
			c0-8,6.8-13.6,14.9-13.6C51.5,10.1,52.1,10.7,54.8,11.4z"/>
		<linearGradient id="SVGID_5_" gradientUnits="userSpaceOnUse" x1="64.9153" y1="34.45" x2="64.9153" y2="8.5741">
			<stop  offset="1.685399e-002" style="stop-color:#FBC536"/>
			<stop  offset="0.4373" style="stop-color:#FCD15F"/>
			<stop  offset="0.7942" style="stop-color:#FDD97B"/>
			<stop  offset="1" style="stop-color:#FDDC86"/>
		</linearGradient>
		<path class="st8" d="M61.6,20.3c-0.4-0.2-0.8-0.4-0.8-0.8c0-0.4,0.6-0.8,1.2-1c0.4-0.2,3.8-1.6,4.2-1.6c0.5,0,0.5,0.4,0.5,1.2v12
			c0,1,0.4,2.2,1.5,2.6c1.1,0.3,1.7,0.6,1.7,1c0,0.4-0.3,0.8-1.4,0.8c-0.9,0-2.9-0.2-3.5-0.2c-0.8,0-2.7,0.2-3.6,0.2
			c-1,0-1.4-0.4-1.4-0.8c0-0.4,0.7-0.7,1.8-1s1.5-1.6,1.5-2.6v-7.8C63.3,21.6,62.6,20.6,61.6,20.3z M66.9,10.7c0,1.2-1,2.2-2.2,2.2
			c-1.2,0-2.2-1-2.2-2.2c0-1.2,1-2.2,2.2-2.2C65.9,8.6,66.9,9.5,66.9,10.7z"/>
		<linearGradient id="SVGID_6_" gradientUnits="userSpaceOnUse" x1="76.7346" y1="34.6903" x2="76.7346" y2="14.9735">
			<stop  offset="1.685399e-002" style="stop-color:#FBC536"/>
			<stop  offset="0.4373" style="stop-color:#FCD15F"/>
			<stop  offset="0.7942" style="stop-color:#FDD97B"/>
			<stop  offset="1" style="stop-color:#FDDC86"/>
		</linearGradient>
		<path class="st9" d="M73.6,30.1v-9.5c0-0.4,0.2-0.6-1.2-0.6c-0.4,0-1.3-0.2-1.3-0.6c0-0.6,1.7-1.7,2.7-2.5c0.6-0.5,2.1-2,2.6-2
			c0.5,0,0.6,0.3,0.6,1v1.1c0,0.4,0.4,0.6,0.9,0.6h3.9c0.6,0,0.8,0.5,0.8,0.9c0,0.4-0.4,1.4-1,1.4h-4c-0.5,0-0.6,0.2-0.6,0.8v7.5
			c0,2.8,0.7,3.7,2.1,3.7c1.5,0,2.5-0.7,2.9-0.7c0.4,0,0.6,0.2,0.6,0.6c0,0.9-2.2,2.9-4.6,2.9C75.5,34.7,73.6,33.5,73.6,30.1z"/>
		<linearGradient id="SVGID_7_" gradientUnits="userSpaceOnUse" x1="95.0134" y1="34.45" x2="95.0134" y2="10.7342">
			<stop  offset="1.685399e-002" style="stop-color:#FBC536"/>
			<stop  offset="0.4373" style="stop-color:#FCD15F"/>
			<stop  offset="0.7942" style="stop-color:#FDD97B"/>
			<stop  offset="1" style="stop-color:#FDDC86"/>
		</linearGradient>
		<path class="st10" d="M93.9,32.6h5.4c3.1,0,3.6-2.4,4.8-4.8c0.2-0.4,0.7-0.8,1.1-0.8c0.4,0,0.7,0.8,0.7,1.9c0,1.1-1,4.3-1.3,4.8
			c-0.3,0.6-0.4,0.8-1.1,0.8c-1.5,0-9-0.2-13.3-0.2c-1.9,0-4.2,0.2-4.5,0.2c-0.4,0-1.3-0.3-1.3-0.7c0-0.6,1.3-0.8,2.2-1.2
			c1.4-0.6,1.9-1.4,1.9-2.9V15.1c0-2.3-1-2.3-3.3-3c-0.4-0.1-0.6-0.3-0.6-0.7c0-0.5,0.6-0.7,1.4-0.7c1.6,0,3,0.2,4.4,0.2
			c1.4,0,3-0.2,4.4-0.2c0.6,0,1.4,0.2,1.4,0.7c0,0.4-0.2,0.6-0.6,0.7c-2.3,0.6-3.4,0.7-3.4,3V31C92.1,32.1,92.6,32.6,93.9,32.6z"/>
		<linearGradient id="SVGID_8_" gradientUnits="userSpaceOnUse" x1="115.4539" y1="34.6903" x2="115.4539" y2="17.1727">
			<stop  offset="1.685399e-002" style="stop-color:#FBC536"/>
			<stop  offset="0.4373" style="stop-color:#FCD15F"/>
			<stop  offset="0.7942" style="stop-color:#FDD97B"/>
			<stop  offset="1" style="stop-color:#FDDC86"/>
		</linearGradient>
		<path class="st11" d="M119.7,21.3v9.5c0,0.6,0.8,1.1,1.4,1.1c0.6,0,1.2-0.5,1.4-0.5c0.2,0,0.4,0.4,0.4,0.9c0,1.4-2,2.5-3.6,2.5
			c-1.3,0-2.2-0.9-2.8-1.6c-0.3-0.4-0.3-0.4-0.6-0.1c-0.9,0.9-2.5,1.7-4.1,1.7c-2,0-4-1.8-4-3.8s1-3.2,2.2-3.8l5.2-2.2
			c0.7-0.3,0.9-0.5,0.9-0.9v-2c0-1.4-1.5-2.4-2.9-2.4c-0.8,0-1.8,0.3-1.8,1.2c0,1,0,1.3-0.4,1.6c-0.2,0.2-1.8,0.8-2.2,0.8
			c-0.2,0-0.3-1-0.3-1.4c0-0.9,0.7-2.1,1.5-2.7c1.4-1,2.9-1.9,4.4-1.9C117.9,17.2,119.7,19.1,119.7,21.3z M113.9,32
			c1.1,0,2.5-0.6,2.5-1.5v-3.8c0-0.4-0.5-0.4-0.9-0.3l-1.9,0.8c-1.4,0.4-2,1.2-2,1.9C111.5,31.1,112.4,32,113.9,32z"/>
		<linearGradient id="SVGID_9_" gradientUnits="userSpaceOnUse" x1="133.2932" y1="34.6903" x2="133.2932" y2="7.1346">
			<stop  offset="1.685399e-002" style="stop-color:#FBC536"/>
			<stop  offset="0.4373" style="stop-color:#FCD15F"/>
			<stop  offset="0.7942" style="stop-color:#FDD97B"/>
			<stop  offset="1" style="stop-color:#FDDC86"/>
		</linearGradient>
		<path class="st12" d="M125,9.9c-0.4-0.2-0.9-0.5-0.9-0.9c0-0.4,0.6-0.8,1.2-0.8c1.6-0.3,3.8-1,4.2-1c0.5,0,0.5,0.3,0.5,1.1v10
			c0,0.6,0.2,0.6,0.8,0.2c0.7-0.5,2.4-1.2,4.6-1.2c4.1,0,7.1,4.2,7.1,8.2c0,5-4.1,9.3-9.2,9.3c-4,0-6.7-1.7-6.7-2.3V11.7
			C126.6,11,126,10.2,125,9.9z M130,29.4c0,2,1.5,3.4,4.6,3.4c2.9,0,4.2-2.8,4.2-6.1c0-3.6-1.9-7.4-5.5-7.4c-2.3,0-3.3,1.6-3.3,1.8
			V29.4z"/>
	</g>
</g>
</svg>
