<?xml version="1.0" encoding="utf-8"?>
<!-- Generator: Adobe Illustrator 19.0.0, SVG Export Plug-In . SVG Version: 6.00 Build 0)  -->
<svg version="1.1" id="Layer_1" xmlns="http://www.w3.org/2000/svg" xmlns:xlink="http://www.w3.org/1999/xlink" x="0px" y="0px"
	 viewBox="-172 389.9 250 62" style="enable-background:new -172 389.9 250 62;" xml:space="preserve">
<style type="text/css">
	.st0{fill:#422611;stroke:#211309;stroke-width:3;stroke-miterlimit:10;}
	.st1{fill:url(#XMLID_2_);stroke:#211309;stroke-width:3;stroke-miterlimit:10;}
	.st2{fill:none;stroke:#442610;stroke-width:2;stroke-miterlimit:10;}
	.st3{fill:none;stroke:#211309;stroke-width:3;stroke-miterlimit:10;}
	.st4{fill:url(#XMLID_3_);}
	.st5{fill:url(#XMLID_4_);}
	.st6{fill:url(#XMLID_5_);}
	.st7{fill:url(#XMLID_6_);}
	.st8{fill:url(#XMLID_7_);}
	.st9{fill:url(#XMLID_8_);}
	.st10{fill:url(#XMLID_9_);}
	.st11{fill:url(#XMLID_10_);}
</style>
<g>
	<g id="XMLID_1673_">
		<g id="XMLID_1679_">
			<path id="XMLID_1681_" class="st0" d="M68.2,449.9h-230c-4.1,0-7.5-3.4-7.5-7.5v-43c0-4.1,3.4-7.5,7.5-7.5h230
				c4.1,0,7.5,3.4,7.5,7.5v43C75.7,446.5,72.3,449.9,68.2,449.9z"/>
			
				<linearGradient id="XMLID_2_" gradientUnits="userSpaceOnUse" x1="-46.8" y1="438.6125" x2="-46.8" y2="392.1125" gradientTransform="matrix(1 0 0 1 0 -0.22)">
				<stop  offset="0" style="stop-color:#51301A"/>
				<stop  offset="1" style="stop-color:#693B1D"/>
			</linearGradient>
			<path id="XMLID_1680_" class="st1" d="M68.2,438.4h-230c-4.1,0-7.5-3.4-7.5-7.5v-31.5c0-4.1,3.4-7.5,7.5-7.5h230
				c4.1,0,7.5,3.4,7.5,7.5v31.5C75.7,435,72.3,438.4,68.2,438.4z"/>
		</g>
		<g id="XMLID_1510_">
			<path id="XMLID_2271_" class="st2" d="M-96.1,431.1c-24.5-1.9-49.9-4.6-73.9-8.2v8.6c0,1.3,1.1,2.4,1.9,3.4
				c15.1,0.5,30.5,1.3,45.5,1.9c7,0.3,14.4,1.1,21.4,1.1H68.7c2.5,0,4.4-1.2,5.8-2.7C18.4,435.8-41.5,435.4-96.1,431.1z"/>
			<path id="XMLID_2272_" class="st2" d="M-83.5,425c-28.9-2.3-57.5-5.8-86.5-8.6v6.5c24,3.5,49.4,6.3,73.9,8.2
				c54.6,4.2,113.9,4.5,169.9,3.9c0.9-1,1.1-2.2,1.1-3.5v-5.2C22,429.6-31.6,429.2-83.5,425z"/>
			<path id="XMLID_2274_" class="st2" d="M-167.6,435.1c1.3,1.6,3.6,2.8,6.2,2.8h60.1c-7,0-14.1-0.7-21.1-1
				C-137.4,436.2-152.5,435.6-167.6,435.1z"/>
			<path id="XMLID_2275_" class="st2" d="M75,405.8v-8.6l0.6,0.3c-29.3,0.6-60.6-0.6-87.8-5.6h-70C-30.7,399.9,22,404.3,75,405.8z"
				/>
			<path id="XMLID_2276_" class="st2" d="M-161.3,391.9c-1.6,0-2.1-0.1-3.3,0.6c39.5,4,76.1,16.3,115.6,20.4
				c20.2,2.1,40.1,1.9,60.4,0.7c20.4-1.2,41.6-3.7,63.6-4v-3.8c-53-1.5-105.7-5.9-157.2-13.9L-161.3,391.9L-161.3,391.9z"/>
			<path id="XMLID_2277_" class="st2" d="M-61.3,421.4c-36.4-2.8-72.7-9.1-108.7-14.2v9.2c29,2.8,57.6,6.3,86.5,8.6
				c51.9,4.2,105.5,4.6,158.5,1.4v-6.3C30,422.7-17.6,424.7-61.3,421.4z"/>
			<path id="XMLID_2278_" class="st2" d="M76,397.8c-0.7-3.2-3.4-5.9-7.3-5.9h-80.8C15,396.9,46.7,398.4,76,397.8z"/>
			<path id="XMLID_2279_" class="st2" d="M-49,412.7c-39.5-4.1-77.1-16.1-116.6-20.1c-0.9,1.7-3.4,2.9-4.4,4.6v10.1
				c36,5.1,72.3,11.4,108.7,14.1c43.7,3.3,91.3,1.4,136.3-1.3v-10.5c-22,0.3-43.3,2.7-63.6,3.9S-28.8,414.8-49,412.7z"/>
		</g>
		<g id="XMLID_1660_">
			<path id="XMLID_1662_" class="st3" d="M68.2,449.9h-230c-4.1,0-7.5-3.4-7.5-7.5v-43c0-4.1,3.4-7.5,7.5-7.5h230
				c4.1,0,7.5,3.4,7.5,7.5v43C75.7,446.5,72.4,449.9,68.2,449.9z"/>
			<path id="XMLID_1661_" class="st3" d="M68.2,438.4h-230c-4.1,0-7.5-3.4-7.5-7.5v-31.5c0-4.1,3.4-7.5,7.5-7.5h230
				c4.1,0,7.5,3.4,7.5,7.5v31.5C75.7,435,72.4,438.4,68.2,438.4z"/>
		</g>
	</g>
	<g id="XMLID_260_">
		<g id="XMLID_261_">
			<g id="XMLID_443_">
				
					<linearGradient id="XMLID_3_" gradientUnits="userSpaceOnUse" x1="-105.45" y1="427.4125" x2="-105.45" y2="403.6967" gradientTransform="matrix(1 0 0 1 0 -0.22)">
					<stop  offset="1.685399e-002" style="stop-color:#FBC536"/>
					<stop  offset="0.4373" style="stop-color:#FCD15F"/>
					<stop  offset="0.7942" style="stop-color:#FDD97B"/>
					<stop  offset="1" style="stop-color:#FDDC86"/>
				</linearGradient>
				<path id="XMLID_453_" class="st4" d="M-106.7,425.3h5.4c3.1,0,3.6-2.4,4.8-4.8c0.2-0.4,0.7-0.8,1.1-0.8s0.7,0.8,0.7,1.9
					s-1,4.3-1.3,4.8c-0.3,0.6-0.4,0.8-1.1,0.8c-1.5,0-9-0.2-13.3-0.2c-1.9,0-4.2,0.2-4.5,0.2c-0.4,0-1.3-0.3-1.3-0.7
					c0-0.6,1.3-0.8,2.2-1.2c1.4-0.6,1.9-1.4,1.9-2.9v-14.6c0-2.3-1-2.3-3.3-3c-0.4-0.1-0.6-0.3-0.6-0.7c0-0.5,0.6-0.7,1.4-0.7
					c1.6,0,3,0.2,4.4,0.2s3-0.2,4.4-0.2c0.6,0,1.4,0.2,1.4,0.7c0,0.4-0.2,0.6-0.6,0.7c-2.3,0.6-3.4,0.7-3.4,3v15.9
					C-108.4,424.9-107.9,425.3-106.7,425.3z"/>
				
					<linearGradient id="XMLID_4_" gradientUnits="userSpaceOnUse" x1="-87.85" y1="427.4125" x2="-87.85" y2="401.5125" gradientTransform="matrix(1 0 0 1 0 -0.22)">
					<stop  offset="1.685399e-002" style="stop-color:#FBC536"/>
					<stop  offset="0.4373" style="stop-color:#FCD15F"/>
					<stop  offset="0.7942" style="stop-color:#FDD97B"/>
					<stop  offset="1" style="stop-color:#FDDC86"/>
				</linearGradient>
				<path id="XMLID_450_" class="st5" d="M-91.2,413c-0.4-0.2-0.8-0.4-0.8-0.8s0.6-0.8,1.2-1c0.4-0.2,3.8-1.6,4.2-1.6
					c0.5,0,0.5,0.4,0.5,1.2v12c0,1,0.4,2.2,1.5,2.6s1.7,0.6,1.7,1s-0.3,0.8-1.4,0.8c-0.9,0-2.9-0.2-3.5-0.2c-0.8,0-2.7,0.2-3.6,0.2
					c-1,0-1.4-0.4-1.4-0.8s0.7-0.7,1.8-1c1.1-0.3,1.5-1.6,1.5-2.6V415C-89.6,414.4-90.3,413.4-91.2,413z M-86,403.5
					c0,1.2-1,2.2-2.2,2.2s-2.2-1-2.2-2.2s1-2.2,2.2-2.2S-86,402.3-86,403.5z"/>
				
					<linearGradient id="XMLID_5_" gradientUnits="userSpaceOnUse" x1="-71.7" y1="427.4125" x2="-71.7" y2="409.8125" gradientTransform="matrix(1 0 0 1 0 -0.22)">
					<stop  offset="1.685399e-002" style="stop-color:#FBC536"/>
					<stop  offset="0.4373" style="stop-color:#FCD15F"/>
					<stop  offset="0.7942" style="stop-color:#FDD97B"/>
					<stop  offset="1" style="stop-color:#FDDC86"/>
				</linearGradient>
				<path id="XMLID_448_" class="st6" d="M-63,425.4c1.1,0.3,1.4,0.6,1.4,1s0,0.8-1.1,0.8c-0.9,0-2.9-0.2-3.5-0.2
					c-0.8,0-2.1,0.2-3,0.2c-1,0-1.2-0.4-1.2-0.8s0.5-0.7,1.6-1c0.7-0.2,0.9-1.6,0.9-2.6v-6.1c0-2.4-1.4-4.7-3.5-4.7
					c-2.3,0-3.9,1.4-3.9,4.4v6.4c0,1,0.2,2.3,0.9,2.6c1.1,0.3,1.5,0.6,1.5,1s-0.1,0.8-1.2,0.8c-0.9,0-2.3-0.2-2.9-0.2
					c-0.8,0-2.7,0.2-3.6,0.2c-1,0-1.2-0.4-1.2-0.8s0.5-0.7,1.6-1s1.5-1.6,1.5-2.6V415c0-0.7-0.7-1.7-1.6-2c-0.4-0.2-0.8-0.4-0.8-0.8
					s0.6-0.8,1.2-1c0.5-0.2,3.8-1.6,4.2-1.6c0.5,0,0.5,0.4,0.5,1.1v1c0,0.6,0.5,0,0.8-0.2c1.3-1.1,2.9-1.6,5-1.6c2.8,0,5,2.6,5,5.6
					v7.2C-64.5,423.8-64,425-63,425.4z"/>
				
					<linearGradient id="XMLID_6_" gradientUnits="userSpaceOnUse" x1="-51.2" y1="427.8125" x2="-51.2" y2="410.1358" gradientTransform="matrix(1 0 0 1 0 -0.22)">
					<stop  offset="1.685399e-002" style="stop-color:#FBC536"/>
					<stop  offset="0.4373" style="stop-color:#FCD15F"/>
					<stop  offset="0.7942" style="stop-color:#FDD97B"/>
					<stop  offset="1" style="stop-color:#FDDC86"/>
				</linearGradient>
				<path id="XMLID_446_" class="st7" d="M-50.2,412.3c-0.5-0.1-0.9-0.3-0.9-0.8c0-0.4,0.6-0.9,1.2-1c1.4-0.2,4.1-0.6,4.5-0.6
					c0.5,0,0.5,0.3,0.5,1.1v13.4c0,0.4,0.2,0.5,0.6,0.5c0.5,0,1.4-0.2,1.7-0.2c0.2,0,0.5,0.4,0.5,0.6c0,0.5-0.4,0.8-0.7,1
					c-0.7,0.4-4,1.3-4.6,1.3c-0.3,0-0.5-0.4-0.6-0.6c-0.1-0.4-0.1-1-0.2-1.5c-0.2-0.7-0.3-0.5-0.8,0c-1.8,1.4-3.1,1.8-5.4,1.8
					s-4-2.6-4-4.9v-7.9c0-0.7-0.1-1.6-1.1-2c-0.4-0.2-0.8-0.5-0.8-0.9s0.5-0.8,1.1-0.8c1.6-0.3,3.3-0.8,3.7-0.8
					c0.5,0,0.5,0.3,0.5,1.1v10.1c0,1.9,1,3.7,2.8,3.7c2.2,0,4-1.3,4-3.1v-7.6C-48.3,413-49,412.5-50.2,412.3z"/>
				
					<linearGradient id="XMLID_7_" gradientUnits="userSpaceOnUse" x1="-32.35" y1="427.4125" x2="-32.35" y2="410.4155" gradientTransform="matrix(1 0 0 1 0 -0.22)">
					<stop  offset="1.685399e-002" style="stop-color:#FBC536"/>
					<stop  offset="0.4373" style="stop-color:#FCD15F"/>
					<stop  offset="0.7942" style="stop-color:#FDD97B"/>
					<stop  offset="1" style="stop-color:#FDDC86"/>
				</linearGradient>
				<path id="XMLID_444_" class="st8" d="M-23.4,426.4c0,0.4-0.3,0.8-1,0.8c-0.6,0-2.5-0.2-3.1-0.2s-2.5,0.2-3.1,0.2s-1-0.4-1-0.8
					s0.5-0.7,1.4-1c0.2,0,0.3-1-0.4-2.1l-2.3-3.2l-2,2.7c-0.2,0.2-1.2,1.7-1.2,2c0,0.4,0.4,0.7,0.7,0.7c0.6,0.1,1.1,0.5,1.1,0.9
					s-0.4,0.8-1,0.8s-2.2-0.2-2.8-0.2s-1.6,0.2-2.2,0.2c-0.6,0-1-0.4-1-0.8s0.8-0.7,1.4-0.9c0.4-0.2,1.7-0.7,2.5-1.8l3.6-4.7
					l-3.9-5.4c-0.3-0.4-1.1-1.4-1.7-1.6c-0.6-0.2-1.1-0.5-1.1-0.9s0.3-0.8,1-0.8c0.6,0,2.1,0.2,2.7,0.2s2.5-0.2,3.1-0.2s1,0.4,1,0.8
					s-0.5,0.7-1.4,1c-0.2,0-0.5,0.4,0.5,1.8l1.8,2.5l2-2.6c0.4-0.5,0.6-0.8,0.6-1.1c0-0.4-0.4-0.7-0.7-0.7c-0.6-0.1-1-0.5-1-0.9
					s0.5-0.8,1.2-0.8c0.6,0,1.8,0.2,2.4,0.2s1.3-0.2,1.9-0.2s1,0.4,1,0.8s-0.8,0.7-1.4,0.9c-0.4,0.2-2.4,1.9-2.8,2.4l-2.4,3.2
					l2.6,3.6c2.4,3.2,3,4,4.2,4.4C-23.7,425.7-23.4,426-23.4,426.4z"/>
			</g>
		</g>
		<g id="XMLID_162_">
			<g id="XMLID_413_">
				
					<linearGradient id="XMLID_8_" gradientUnits="userSpaceOnUse" x1="9.8375" y1="430.8269" x2="9.8375" y2="402.1355" gradientTransform="matrix(1 0 0 1 0 -0.22)">
					<stop  offset="1.685399e-002" style="stop-color:#FBC536"/>
					<stop  offset="0.4373" style="stop-color:#FCD15F"/>
					<stop  offset="0.7942" style="stop-color:#FDD97B"/>
					<stop  offset="1" style="stop-color:#FDDC86"/>
				</linearGradient>
				<path id="XMLID_416_" class="st9" d="M19.1,421.5h0.1c0.5,0,0.8,0.3,0.9,0.8c0.1,0.2,0.1,0.5,0.1,0.7c0.1,0.5,0.3,0.9,0.7,1.3
					c0.2,0.2,0.4,0.3,0.6,0.5c0.1,0.1,0.3,0.3,0.4,0.4s0.2,0.2,0.2,0.3c0.1,0.2,0.1,0.5,0,0.7c-0.1,0.1-0.2,0.3-0.3,0.4
					c-0.2,0.2-0.4,0.3-0.6,0.5c-0.5,0.3-1,0.6-1.5,1c-0.4,0.3-0.8,0.5-1.2,0.8c-0.5,0.4-1,0.7-1.5,1.2l0,0c-0.5,0.4-1.1,0.6-1.7,0.6
					c-0.4,0-0.8-0.1-1.1-0.3c-0.2-0.1-0.4-0.2-0.6-0.4c-0.2-0.2-0.4-0.5-0.4-0.8c0-0.1-0.1-0.2-0.2-0.2c-0.5-0.2-1.1-0.4-1.7-0.5
					c-0.8-0.2-1.6-0.2-2.4-0.1c-0.4,0-0.8,0.1-1.2,0.2c-0.1,0-0.2,0.1-0.3,0.1c0,0-0.1,0-0.1,0.1c-0.2,0.6-0.5,1-1,1.3
					c-0.3,0.2-0.6,0.3-1,0.4c-0.5,0.1-1.1-0.1-1.6-0.2c-0.3-0.1-0.7-0.2-1-0.4c-0.6-0.2-1.1-0.4-1.7-0.5c-0.8-0.2-1.6-0.3-2.4-0.6
					c-0.2-0.1-0.4-0.1-0.5-0.2c-0.5-0.2-0.6-0.7-0.6-1.2c0-0.2,0.1-0.4,0.2-0.6c0.1-0.4,0.2-0.9,0.1-1.3c0-0.4-0.1-0.8-0.1-1.2
					c0-0.2,0-0.3,0.1-0.5s0.2-0.4,0.4-0.5s0.4-0.2,0.7-0.2c0.3-0.1,0.5-0.1,0.8-0.2c0.1,0,0.2-0.1,0.3-0.1c0.1-0.1,0.2-0.1,0.3-0.2
					c0.1-0.2,0.2-0.3,0.4-0.5c0.1-0.2,0.3-0.4,0.4-0.6c0.1-0.1,0.1-0.2,0.1-0.4c0-0.4,0-0.9,0.1-1.3c0.1-0.5,0.3-1.1,0.5-1.5
					c0.3-0.6,0.7-1.2,1.1-1.8c0.5-0.7,0.9-1.5,1.4-2.2c0.5-0.8,0.9-1.6,1.3-2.5c0.1-0.3,0.3-0.7,0.3-1.1c0-0.2,0-0.4,0.1-0.5
					c0-0.4,0-0.8,0-1.1c0-0.5,0-0.9,0-1.4s0-1,0-1.4c0-0.6,0.1-1.3,0.4-1.8c0.4-0.9,1.1-1.5,1.9-1.9c0.3-0.2,0.7-0.3,1.1-0.3
					c0.3,0,0.6,0,0.9,0c0.4,0,0.8,0.1,1.2,0.3c0.7,0.3,1.3,0.8,1.7,1.4c0.3,0.5,0.5,1,0.6,1.6s0.1,1.1,0.1,1.7c0,0.8,0,1.5,0.1,2.3
					c0,0.2,0,0.4,0.1,0.6c0,0.3,0.1,0.5,0.3,0.8s0.4,0.7,0.6,1c0.7,1.2,1.5,2.4,2.2,3.5c0.5,0.7,0.9,1.5,1.2,2.3
					c0.2,0.5,0.4,1,0.5,1.6s0.1,1.3,0,1.9C19.2,421.1,19.1,421.3,19.1,421.5z M6.3,425.8l0.1,0.1c0.2,0.1,0.4,0.3,0.6,0.4
					c0.7,0.3,1.4,0.5,2.2,0.5c0.4,0,0.7,0,1.1,0c0.4,0,0.9-0.1,1.3-0.3c0.9-0.3,1.7-0.9,2.3-1.6c0,0,0-0.1,0.1-0.1
					c0-0.5,0-1.1,0.1-1.6c0-0.3,0-0.5,0.1-0.8c0.1-0.4,0.3-0.7,0.7-0.8H15v-0.1c0.1-0.3,0.2-0.5,0.5-0.6c0.1,0,0.2-0.1,0.3-0.1
					c0.4-0.1,0.9-0.1,1.3-0.1s0.8,0.1,1.2,0.2l0,0l-0.1-0.1c-0.1-0.1-0.2-0.1-0.3-0.2c-0.4-0.1-0.8-0.2-1.2-0.2c-0.1,0-0.2,0-0.4,0
					c0-0.1,0.1-0.3,0.1-0.4c0.1-0.3,0.2-0.7,0.2-1c0-0.4,0-0.8-0.1-1.2c-0.3-0.9-0.8-1.6-1.5-2.2l0,0c0,0.1,0.1,0.1,0.1,0.1
					c0.7,0.7,1.1,1.5,1.3,2.5c0.1,0.8-0.1,1.5-0.4,2.2l0,0c-0.1,0-0.1,0-0.2,0c-0.1,0-0.1,0-0.1,0l0,0v-0.1c0-0.7-0.1-1.3-0.2-2
					c-0.2-0.8-0.5-1.5-0.8-2.2c-0.2-0.3-0.4-0.6-0.6-0.9c0,0,0-0.1-0.1-0.1c-0.1-0.4-0.2-0.8-0.4-1.2c-0.2-0.4-0.3-0.8-0.5-1.2
					c-0.2-0.6-0.3-1.3-0.4-1.9c0-0.1,0-0.2-0.1-0.4c-0.1,0-0.1,0-0.1,0.1c-0.2,0.1-0.3,0.2-0.5,0.3s-0.4,0.3-0.6,0.5
					c-0.2,0.2-0.5,0.4-0.8,0.5c-0.4,0.2-0.8,0.3-1.2,0.3c-0.5,0-0.9-0.2-1.3-0.6c-0.1-0.1-0.2-0.2-0.3-0.3s-0.2-0.3-0.4-0.4
					l-0.1-0.1v0.1c-0.1,0.6-0.2,1.2-0.4,1.9c-0.1,0.6-0.3,1.3-0.7,1.8c-0.2,0.3-0.3,0.7-0.4,1.1c0,0,0,0.1-0.1,0.1
					c-0.2,0.2-0.4,0.5-0.5,0.8c-0.3,0.7-0.6,1.4-0.8,2.1c-0.2,0.7-0.3,1.3-0.3,2c0,0,0,0.1,0,0.2v-0.1c-0.1-0.2-0.2-0.5-0.2-0.7
					c-0.1-0.6-0.1-1.3,0.1-1.9c0.2-0.8,0.5-1.5,1.1-2.1c0,0,0-0.1,0.1-0.1l0,0c0,0-0.1,0-0.1,0.1c-0.2,0.2-0.4,0.4-0.5,0.6
					c-0.4,0.5-0.6,1.1-0.7,1.8c-0.2,0.8-0.2,1.5,0,2.3c0.1,0.5,0.3,0.9,0.6,1.3c0.2,0.2,0.4,0.4,0.6,0.6c0.4,0.3,0.7,0.6,1.1,0.9
					c0.2,0.2,0.4,0.3,0.7,0.5c0.1,0.1,0.2,0.2,0.3,0.3c0.3,0.3,0.3,0.8,0,1.1c-0.1,0.2-0.3,0.3-0.4,0.4
					C6.4,425.7,6.4,425.7,6.3,425.8z M5.4,430.2L5.4,430.2c0.5,0,0.9-0.2,1.3-0.5c0.1-0.1,0.3-0.3,0.4-0.4c0.3-0.3,0.4-0.7,0.4-1.2
					c0-0.3-0.1-0.7-0.3-1c-0.1-0.2-0.2-0.3-0.4-0.5c-0.3-0.3-0.6-0.7-0.8-1.1c-0.1-0.1-0.1-0.2-0.2-0.3c-0.7-1.1-1.5-2.1-2.2-3.2
					c-0.1-0.1-0.2-0.2-0.3-0.3s-0.3-0.3-0.4-0.4c-0.1-0.1-0.3-0.1-0.4-0.1c-0.3,0-0.6,0.2-0.8,0.5c-0.1,0.1-0.1,0.2-0.2,0.4
					c-0.1,0.1-0.1,0.2-0.2,0.4c-0.2,0.3-0.5,0.5-0.9,0.6c-0.2,0-0.3,0.1-0.5,0.1c-0.3,0.1-0.5,0.1-0.8,0.2s-0.4,0.3-0.5,0.6
					c-0.1,0.2-0.1,0.5,0,0.7c0,0.4,0.1,0.7,0.1,1.1c0,0.5-0.1,1-0.3,1.4v0.1c-0.1,0.4,0.1,0.9,0.4,1c0.2,0.1,0.3,0.1,0.5,0.2
					c0.8,0.2,1.6,0.4,2.4,0.6c0.6,0.1,1.1,0.3,1.6,0.5c0.3,0.1,0.7,0.2,1,0.4C4.6,430.1,5,430.2,5.4,430.2z M14.8,421.7
					c-0.2,0-0.3,0.1-0.4,0.2c-0.1,0.1-0.2,0.2-0.2,0.4c-0.1,0.2-0.1,0.5-0.1,0.7c0,0.7,0,1.4-0.1,2.1c0,0.4,0,0.8-0.1,1.2
					c-0.1,0.3-0.2,0.7-0.2,1c-0.1,0.5-0.2,1-0.1,1.6c0.1,0.4,0.3,0.7,0.6,0.9c0.1,0.1,0.2,0.2,0.4,0.2c0.4,0.2,0.8,0.2,1.3,0.2
					c0.4,0,0.8-0.2,1.1-0.4c0.1-0.1,0.2-0.2,0.3-0.3c0.2-0.1,0.3-0.3,0.5-0.4c0.3-0.2,0.5-0.4,0.8-0.6c0.4-0.3,0.8-0.6,1.2-0.9
					c0.3-0.2,0.6-0.4,0.9-0.6s0.6-0.4,0.9-0.6c0.1-0.1,0.2-0.2,0.3-0.3c0.1-0.2,0.1-0.4,0-0.6c0-0.1-0.1-0.1-0.1-0.2
					c-0.1-0.1-0.2-0.2-0.3-0.3c-0.2-0.2-0.4-0.4-0.7-0.6c-0.4-0.3-0.7-0.7-0.8-1.2c0-0.2-0.1-0.4-0.1-0.6c0-0.3-0.2-0.5-0.4-0.7
					c-0.1-0.1-0.2-0.1-0.3-0.1c-0.2-0.1-0.5-0.1-0.7-0.1s-0.2,0-0.3,0.2c0,0.1-0.1,0.2-0.1,0.2c-0.2,0.3-0.3,0.5-0.5,0.8
					c-0.4,0.5-0.9,0.8-1.6,0.9c-0.5,0.1-0.8-0.1-1-0.5c0-0.1-0.1-0.2-0.1-0.3c-0.1-0.3-0.2-0.6-0.2-0.9
					C14.8,422,14.8,421.9,14.8,421.7z M7.1,410.4L7.1,410.4c0,0.1,0.1,0.1,0.1,0.1c0.2,0.2,0.4,0.4,0.6,0.6c0,0.1,0.1,0.1,0.1,0.2
					c0.3,0.3,0.7,0.5,1.2,0.5s0.9-0.1,1.3-0.3c0.3-0.2,0.6-0.4,0.9-0.6c0.3-0.2,0.6-0.5,0.9-0.6c0.1-0.1,0.2-0.1,0.2-0.2
					c0.1-0.2,0.1-0.3,0.1-0.5s-0.1-0.4-0.3-0.5c-0.1,0-0.2-0.1-0.3-0.1c-0.2-0.1-0.5-0.2-0.7-0.3c-0.4-0.2-0.8-0.3-1.3-0.5
					s-1.1-0.1-1.6,0.1c-0.3,0.2-0.6,0.4-0.9,0.6c-0.1,0.1-0.2,0.2-0.3,0.2c-0.1,0.1-0.2,0.3-0.3,0.5c0,0.1,0,0.2,0,0.2
					c0,0.1,0,0.1,0.1,0.2c0.3,0.1,0.5,0.3,0.8,0.4c0.5,0.2,0.9,0.4,1.4,0.3c0.5,0,0.9-0.1,1.3-0.3c0.4-0.2,0.9-0.5,1.2-0.8l0.1-0.1
					c0.1-0.1,0.2,0,0.3,0l-0.1,0.1c-0.1,0.1-0.3,0.2-0.4,0.3c-0.1,0.1-0.2,0.1-0.3,0.2c-0.4,0.3-0.8,0.5-1.2,0.6
					c-0.3,0.1-0.6,0.2-0.8,0.2c-0.5,0-1-0.1-1.5-0.3C7.5,410.6,7.4,410.5,7.1,410.4C7.2,410.4,7.1,410.4,7.1,410.4z M11.9,408.9
					c0.2-0.2,0.3-0.4,0.4-0.6c0.2-0.3,0.3-0.7,0.2-1.1c0-0.3-0.2-0.6-0.4-0.8c-0.3-0.4-0.9-0.5-1.3-0.3c-0.4,0.2-0.6,0.4-0.8,0.8
					c-0.1,0.4-0.2,0.8-0.2,1.1c0,0.1,0,0.1,0.1,0.1s0.2,0.1,0.4,0.1h0.1l0,0v-0.1c-0.1-0.4,0-0.7,0.3-1c0.3-0.4,0.9-0.3,1.1,0.2
					c0.2,0.4,0.1,1-0.3,1.3c0,0,0,0-0.1,0.1C11.6,408.7,11.8,408.8,11.9,408.9z M8.3,408.3c0.1,0,0.1-0.1,0.2-0.1
					c0.1,0,0.1-0.1,0.1-0.1c0-0.5-0.1-0.9-0.3-1.3c-0.1-0.1-0.2-0.3-0.3-0.4c-0.3-0.2-0.8-0.2-1,0.2c-0.1,0.1-0.1,0.2-0.1,0.3
					c-0.1,0.4-0.1,0.8,0,1.2c0.1,0.2,0.2,0.5,0.3,0.7l0.1,0.1c0.1-0.1,0.2-0.1,0.3-0.2c-0.2-0.1-0.3-0.2-0.3-0.4
					c-0.1-0.2-0.1-0.4-0.1-0.7c0-0.2,0.1-0.3,0.2-0.4s0.3-0.2,0.5-0.1c0.1,0.1,0.2,0.2,0.3,0.3c0.1,0.2,0.2,0.5,0.1,0.8
					C8.3,408.2,8.3,408.2,8.3,408.3z"/>
				
					<linearGradient id="XMLID_9_" gradientUnits="userSpaceOnUse" x1="9.6375" y1="408.9348" x2="9.6375" y2="408.6738" gradientTransform="matrix(1 0 0 1 0 -0.22)">
					<stop  offset="1.685399e-002" style="stop-color:#FBC536"/>
					<stop  offset="0.4373" style="stop-color:#FCD15F"/>
					<stop  offset="0.7942" style="stop-color:#FDD97B"/>
					<stop  offset="1" style="stop-color:#FDDC86"/>
				</linearGradient>
				<path id="XMLID_415_" class="st10" d="M9.8,408.7c-0.2,0-0.3-0.1-0.4-0.2c0.1-0.1,0.3-0.1,0.4,0S9.9,408.6,9.8,408.7z"/>
				
					<linearGradient id="XMLID_10_" gradientUnits="userSpaceOnUse" x1="8.6" y1="408.9306" x2="8.6" y2="408.6836" gradientTransform="matrix(1 0 0 1 0 -0.22)">
					<stop  offset="1.685399e-002" style="stop-color:#FBC536"/>
					<stop  offset="0.4373" style="stop-color:#FCD15F"/>
					<stop  offset="0.7942" style="stop-color:#FDD97B"/>
					<stop  offset="1" style="stop-color:#FDDC86"/>
				</linearGradient>
				<path id="XMLID_414_" class="st11" d="M8.8,408.5c-0.1,0.1-0.2,0.1-0.3,0.2H8.4v-0.1c0,0,0,0,0-0.1
					C8.6,408.5,8.7,408.5,8.8,408.5z"/>
			</g>
		</g>
	</g>
</g>
</svg>
