<svg xmlns="http://www.w3.org/2000/svg" xmlns:xlink="http://www.w3.org/1999/xlink" version="1.1" style="" xml:space="preserve" width="335" height="460"><rect id="backgroundrect" width="100%" height="100%" x="0" y="0" fill="none" stroke="none"/>
<style type="text/css">
	.st0{fill:#60381E;}
	.st1{fill:#442610;}
	.st2{fill:#422611;}
	.st3{fill:#B77820;}
	.st4{fill:#FBC536;}
	.st5{fill:url(#XMLID_2_);}
	.st6{fill:url(#XMLID_3_);}
	.st7{fill:url(#XMLID_4_);}
	.st8{fill:url(#XMLID_6_);}
	.st9{fill:#211309;}
	.st10{fill:url(#XMLID_7_);}
	.st11{fill:url(#XMLID_8_);}
	.st12{fill:url(#XMLID_9_);}
	.st13{fill:url(#XMLID_10_);}
	.st14{fill:url(#XMLID_11_);}
	.st15{fill:url(#XMLID_12_);}
	.st16{fill:url(#XMLID_13_);}
	.st17{fill:url(#XMLID_14_);}
	.st18{fill:url(#XMLID_15_);}
	.st19{fill:url(#XMLID_16_);}
	.st20{fill:url(#XMLID_17_);}
	.st21{fill:url(#XMLID_18_);}
	.st22{fill:url(#XMLID_19_);}
	.st23{fill:url(#XMLID_20_);}
</style>




<g class="currentLayer" style=""><title>Layer 1</title><path id="XMLID_38_" class="st0" d="M315.7,459.4H19.3C8.7,459.4,0,450.8,0,440.1V19.9C0,9.2,8.7,0.6,19.3,0.6h296.3  c10.7,0,19.3,8.7,19.3,19.3v420.2C335,450.8,326.3,459.4,315.7,459.4z"/><g id="XMLID_5_">
	<g id="XMLID_1870_">
		<g id="XMLID_1937_">
			<g id="XMLID_2709_">
				<path id="XMLID_2754_" class="st1" d="M61.2,361.7c-4.1,11.6-4.9,24-5,36.2c-0.1,6.3-0.2,12.7,0.3,19c0.2,2.1,0.5,7.9,3.6,7.9      c2.9,0.1,3.1-5.1,3.4-6.8c1.1-6.4,2.1-12.8,2.7-19.3c1.3-12.6,1.3-26-3.3-37.9c-0.3-0.7-1.4-0.4-1.2,0.3      c3.6,9.3,4.2,19.4,3.9,29.2c-0.2,5.8-0.9,11.6-1.7,17.4c-0.3,2.4-0.7,4.8-1.1,7.2c-0.2,1.2-0.4,2.4-0.6,3.6      c-0.4,2.2,0.3,3.4-2.4,2c-2.3-1.2-2-2.1-2.2-4.5c-0.1-1.1-0.1-2.1-0.1-3.2c-0.1-2.3-0.1-4.7-0.1-7c-0.1-5,0-10,0.2-15      c0.4-9.8,1.5-19.6,4.8-28.8C62.6,361.3,61.4,361,61.2,361.7L61.2,361.7z"/>
			</g>
		</g>
		<g id="XMLID_1936_">
			<g id="XMLID_2558_">
				<path id="XMLID_2569_" class="st1" d="M64.7,332.7c-1.6-3.5-4.5-2.7-5.9,0.5c-1.6,3.4-1.7,7.6-2.2,11.2      c-0.6,4.5-1.1,9.1-1.6,13.6c-2.1,20-3.2,40.3-2.7,60.5c0.1,5.6-0.1,13.9,3.9,18.4c3.2,3.7,7.1,1.6,9.5-1.8      c4.1-6,5-14.5,5.9-21.4c1.2-9.5,1.6-19.1,1.6-28.6c0-18.4,0.8-38.9-9.1-55.3c-0.4-0.7-1.4-0.1-1,0.6c8.9,14.7,8.7,32.5,8.9,49      c0.1,8.7,0,17.4-0.7,26.1c-0.7,8.8-1.5,19.2-5.6,27.2c-1.7,3.4-7.5,5.3-9.7,1.6c-1-1.6-1.3-3.9-1.6-5.7      c-0.7-4.2-0.8-8.4-0.9-12.6c-0.1-9.2,0.1-18.4,0.5-27.6c0.4-9.1,1-18.3,1.9-27.4c0.4-4.5,0.9-9,1.5-13.5      c0.3-2.7,0.7-5.4,1.1-8.1c0.2-1,0.3-2.1,0.6-3.1c0.2-2.2,1.7-3.2,4.6-3C64,334,65,333.4,64.7,332.7L64.7,332.7z"/>
			</g>
		</g>
		<g id="XMLID_1935_">
			<g id="XMLID_2549_">
				<path id="XMLID_2554_" class="st1" d="M64.3,303.3c-7,1.1-8.1,14.6-8.9,19.7c-2,12.7-3.4,25.4-4.6,38.2      c-2.5,25.9-4.4,51.4,2,76.9c0.9,3.7,1.3,7.1,1.6,10.8c0.1,1.5-0.1,5.4,1.1,6.6c1.3,1.4,3.7,0.5,5.4,0.1c2.6-0.6,4.4-2.9,5.8-5      c12-18,11.9-42.8,11.3-63.4c-0.5-14.4-2.1-28.6-4.2-42.8c-2-13.2-3.4-26.9-8.7-39.2c-0.3-0.7-1.3-0.1-1,0.6      c4.2,9.9,5.7,20.7,7.4,31.3c1.8,11.8,3.6,23.7,4.6,35.6c1.6,20.8,2.5,42.9-4,63c-2.1,6.4-5.1,17.6-12.8,18.8      c-1.8,0.3-2.1,0.8-2.9-0.7c-0.6-1-0.5-3.8-0.6-4.9c-0.2-2.5-0.3-5-0.7-7.4c-2-10.5-4.5-20.7-5.2-31.5      c-0.7-11.2-0.1-22.3,0.9-33.4c1.1-12.8,2.3-25.6,3.9-38.4c0.8-6.4,1.6-12.8,2.8-19.1c0.8-4.2,2.1-13.9,7.3-14.7      C65.4,304.3,65,303.2,64.3,303.3L64.3,303.3z"/>
			</g>
		</g>
		<g id="XMLID_1934_">
			<g id="XMLID_2157_">
				<path id="XMLID_2169_" class="st1" d="M64.4,2c5.7,61.3,2.1,122.9-1.2,184.2c-0.8,15.6-1.6,31.2-2.5,46.8      c-0.9,16-3.5,31.5-6.6,47.3c-5.1,26.5-7.9,53.5-9.1,80.5c-1.4,31.5-0.7,63.1,2.7,94.4c0.1,0.8,1.3,0.8,1.2,0      c-6-55.6-4.6-112.9,5.2-168c2.5-14.2,5.7-28.2,7-42.6c1.4-15.5,1.9-31.2,2.7-46.8c1.7-30.8,3.5-61.6,4.3-92.4      c1-34.5,0.7-69-2.5-103.4C65.6,1.2,64.4,1.2,64.4,2L64.4,2z"/>
			</g>
		</g>
		<g id="XMLID_1933_">
			<g id="XMLID_2143_">
				<path id="XMLID_2155_" class="st1" d="M55.8,2c0.9,30.9,1.7,61.7,2.5,92.6c0.9,30.9,1.9,61.7-0.7,92.6      C52.7,245.4,40.1,302.5,37,360.8c-1.7,31.4-2,62.9-0.5,94.3c0,0.8,1.2,0.8,1.2,0c-2.6-56.8,0.2-113.8,8.2-170.1      c4.1-28.8,8.9-57.5,11.9-86.5c3.2-30.9,3-61.6,2.1-92.5C58.9,71.4,58,36.7,57,2C57,1.2,55.8,1.2,55.8,2L55.8,2z"/>
			</g>
		</g>
		<g id="XMLID_1931_">
			<g id="XMLID_2134_">
				<path id="XMLID_2141_" class="st1" d="M46.3,2c0.8,29.5,1.5,59.1,2.2,88.6c0.8,30.6,1.2,60.7-2.2,91.1      c-6.6,58.1-12.2,116.2-15,174.6c-1.6,32.9-2.5,65.8-2.8,98.8c0,0.8,1.2,0.8,1.2,0c0.5-59.3,3.1-118.7,7.9-177.8      c2.3-28.8,5.3-57.4,8.8-86.1c1.8-14.6,3.4-29.2,3.9-44c0.6-15.5,0.1-31.1-0.3-46.6C49.1,67.8,48.3,34.9,47.5,2      C47.5,1.2,46.3,1.2,46.3,2L46.3,2z"/>
			</g>
		</g>
		<g id="XMLID_1930_">
			<g id="XMLID_2098_">
				<path id="XMLID_2104_" class="st1" d="M37.2,2c1.7,29.5,3.2,59,3.3,88.5c0.1,29.7-1.9,59.2-5.6,88.7      c-3.7,29.8-8.4,59.4-10.8,89.3c-2.4,30-2.2,60.2-0.8,90.2c1.4,32.1,3.7,64.3,2.1,96.4c0,0.8,1.2,0.8,1.2,0      c1.4-28.5-0.2-57.1-1.6-85.6c-1.4-29.8-2.2-59.6-0.5-89.4c1.8-30,6.2-59.7,10.1-89.5c3.9-29.5,6.7-59,7-88.8      C42,68.5,40.3,35.2,38.4,2C38.4,1.2,37.2,1.2,37.2,2L37.2,2z"/>
			</g>
		</g>
		<g id="XMLID_1929_">
			<g id="XMLID_2088_">
				<path id="XMLID_2095_" class="st1" d="M32.8,2c2.3,60.5-4.2,120.8-9.8,180.9C17.6,241.3,14.9,299.4,16,358      c0.6,32.4,1.8,64.8,3.1,97.1c0,0.8,1.2,0.8,1.2,0c-2.4-58-4.6-116.1-2.8-174.1c1.8-59.4,9.4-118.4,13.9-177.7      C33.9,69.6,35.3,35.8,34,2C34,1.2,32.8,1.2,32.8,2L32.8,2z"/>
			</g>
		</g>
		<g id="XMLID_1928_">
			<g id="XMLID_2077_">
				<path id="XMLID_2084_" class="st1" d="M73.6,2c-1.9,30.6-2.6,61.3-2.1,92c0.2,15.4,1.1,30.7,1,46.1c-0.1,14.6-1.6,29.1-3.3,43.6      c-1.8,15.2-3.5,30.4-3.6,45.7c-0.1,15,1,29.9,2.5,44.8c3,28.4,7.3,56.6,10,84.9c3.1,31.8,4.5,64.2-1,95.9      c-0.1,0.8,1,1.1,1.2,0.3c9.7-55.8-0.9-112.9-7.5-168.4c-3.6-30.1-5.2-59.9-1.9-90.1c1.7-15.1,3.9-30.1,4.5-45.3      c0.7-15.3-0.1-30.5-0.5-45.8C72,71.1,72.7,36.5,74.8,2C74.8,1.2,73.6,1.2,73.6,2L73.6,2z"/>
			</g>
		</g>
		<g id="XMLID_1927_">
			<g id="XMLID_2068_">
				<path id="XMLID_2075_" class="st1" d="M80.5,2c-0.8,60.8-2.7,121.6-6.1,182.3c-0.8,15.3-1.8,30.6-2.8,45.9      c-0.9,14,0,27.3,2.2,41.1c4.5,28.6,7.5,57.4,9.5,86.2c2.2,32.5,3.1,65.1,2.6,97.7c0,0.8,1.2,0.8,1.2,0      c0.9-56.9-2.2-114.1-10.1-170.4c-2.1-15-5.1-29.9-4.7-45.1c0.4-14.6,1.8-29.2,2.6-43.8c1.8-30.4,3.2-60.8,4.2-91.2      c1.2-34.2,2-68.4,2.5-102.7C81.7,1.2,80.5,1.2,80.5,2L80.5,2z"/>
			</g>
		</g>
		<g id="XMLID_1926_">
			<g id="XMLID_2059_">
				<path id="XMLID_2066_" class="st1" d="M24.8,2c-0.1,58.3-3,116.4-6.9,174.6c-4,59.5-6.6,119-6.3,178.7      c0.2,33.3,1.1,66.6,2.9,99.9c0,0.8,1.2,0.8,1.2,0c-3.2-59.6-3.8-119.4-1.9-179.1c1.9-60,7.4-119.8,10.1-179.8      C25.3,64.9,25.9,33.4,26,2C26,1.2,24.8,1.2,24.8,2L24.8,2z"/>
			</g>
		</g>
		<g id="XMLID_1924_">
			<g id="XMLID_2048_">
				<path id="XMLID_2054_" class="st1" d="M21.2,2c-3.6,27.3,0.1,55.1-1.4,82.5c-1.7,30.8-5.5,61.4-7.7,92.1      c-4.2,59.8-5.5,119.8-5.7,179.8c-0.1,32.9,0.1,65.8,0.4,98.7c0,0.8,1.2,0.8,1.2,0c-0.5-59.4-0.8-118.7,0.7-178.1      c0.7-29.6,2-59.1,3.9-88.6c2-31.4,5.5-62.7,7.8-94.1c1.2-15.8,1.4-31.6,1-47.5C21,31.9,20.5,16.9,22.4,2      C22.5,1.2,21.3,1.2,21.2,2L21.2,2z"/>
			</g>
		</g>
		<g id="XMLID_1923_">
			<g id="XMLID_2038_">
				<path id="XMLID_2045_" class="st1" d="M8.5,2C7.6,122.9,3.6,243.6,0.2,364.4c-0.9,30.4-0.7,60.8,3.6,90.9      c0.1,0.8,1.3,0.4,1.2-0.3c-3.9-27.4-4.5-55.1-3.8-82.7c0.7-30.1,1.7-60.3,2.6-90.4c1.7-59.4,3.5-118.7,4.6-178.1      C9,69.9,9.4,36,9.7,2C9.7,1.2,8.5,1.2,8.5,2L8.5,2z"/>
			</g>
		</g>
		<g id="XMLID_1898_">
			<g id="XMLID_1922_">
				<g id="XMLID_2028_">
					<path id="XMLID_2034_" class="st1" d="M191.9,2c0,60.5-0.9,121-2.7,181.4c-0.9,29.8-3.3,59.6,0.4,89.3       c3.7,29.2,7,58.5,9.5,87.8c2.7,31.3,4.5,63.2,0.2,94.5c-0.1,0.8,1.1,1.1,1.2,0.3c3.7-27.3,2.8-55.1,0.8-82.5       c-2.1-28.9-5.3-57.9-8.8-86.7c-1.9-15.4-4.1-30.7-3.9-46.2c0.1-15.1,1-30.1,1.5-45.2c1-30,1.7-59.9,2.2-89.9       c0.6-34.3,0.9-68.6,0.9-102.8C193.1,1.2,191.9,1.2,191.9,2L191.9,2z"/>
				</g>
			</g>
			<g id="XMLID_1921_">
				<g id="XMLID_2020_">
					<path id="XMLID_2026_" class="st1" d="M196.8,2.2c10.9,56.6,4.6,115.6,3.2,172.9c-0.8,30.9-1.1,61.8-0.1,92.7       c0.9,29.1,3,58.1,4.7,87.2c2,33.4,3.6,66.8,2.3,100.2c0,0.8,1.2,0.8,1.2,0c2.3-59.3-4.5-118.4-6.7-177.6       c-2.3-60.8,1.1-121.4,2.3-182.2c0.6-31.2,0.2-62.8-5.7-93.5C197.8,1.1,196.7,1.4,196.8,2.2L196.8,2.2z"/>
				</g>
			</g>
			<g id="XMLID_1920_">
				<g id="XMLID_2012_">
					<path id="XMLID_2018_" class="st1" d="M200.8,2.2c8,24.5,5.8,52.2,5.6,77.6c-0.2,30.6-0.4,61.2-0.7,91.7       c-0.1,15.2-0.3,30.3-1.1,45.5c-0.8,14.9-2.5,29.7-2.4,44.6c0.1,15,2.1,29.9,3.8,44.8c1.6,14.9,3,29.7,4.2,44.6       c2.8,34.7,4.3,69.4,4.8,104.2c0,0.8,1.2,0.8,1.2,0c-0.4-31.2-1.7-62.3-4-93.4c-1.1-15.3-2.4-30.5-4-45.7       c-1.6-15.3-3.8-30.5-4.5-45.8c-0.7-14.6,0.6-29,1.6-43.5c1.1-15.7,1.5-31.5,1.6-47.3c0.3-30.7,0.5-61.4,0.7-92.1       c0.1-15,0.5-30.1,0-45.1c-0.4-13.5-1.3-27.4-5.6-40.3C201.7,1.1,200.5,1.4,200.8,2.2L200.8,2.2z"/>
				</g>
			</g>
			<g id="XMLID_1919_">
				<g id="XMLID_2004_">
					<path id="XMLID_2010_" class="st1" d="M272.1,96.1c4.1-11.6,4.9-24,5-36.2c0.1-6.3,0.2-12.7-0.3-19c-0.2-2.1-0.5-7.9-3.6-7.9       c-2.9-0.1-3.1,5.1-3.4,6.8c-1.1,6.4-2.1,12.8-2.7,19.3c-1.3,12.6-1.3,26,3.3,37.9c0.3,0.7,1.4,0.4,1.2-0.3       c-3.6-9.3-4.2-19.4-3.9-29.2c0.2-5.8,0.9-11.6,1.7-17.4c0.3-2.4,0.7-4.8,1.1-7.2c0.2-1.2,0.4-2.4,0.6-3.6       c0.4-2.2-0.3-3.4,2.4-2c2.3,1.2,2,2.1,2.2,4.5c0.1,1.1,0.1,2.1,0.1,3.2c0.1,2.3,0.1,4.7,0.1,7c0.1,5,0,10-0.2,15       c-0.4,9.8-1.5,19.6-4.8,28.8C270.7,96.5,271.9,96.8,272.1,96.1L272.1,96.1z"/>
				</g>
			</g>
			<g id="XMLID_1917_">
				<g id="XMLID_1997_">
					<path id="XMLID_2001_" class="st1" d="M268.6,125.1c1.6,3.5,4.5,2.7,5.9-0.5c1.6-3.4,1.7-7.6,2.2-11.2       c0.6-4.5,1.1-9.1,1.6-13.6c2.1-20,3.2-40.3,2.7-60.5c-0.1-5.6,0.1-13.9-3.9-18.4c-3.2-3.7-7.1-1.6-9.5,1.8       c-4.1,6-5,14.5-5.9,21.4c-1.2,9.5-1.6,19.1-1.6,28.6c0,18.4-0.8,38.9,9.1,55.3c0.4,0.7,1.4,0.1,1-0.6       c-8.9-14.7-8.7-32.5-8.9-49c-0.1-8.7,0-17.4,0.7-26.1c0.7-8.8,1.5-19.2,5.6-27.2c1.7-3.4,7.5-5.3,9.7-1.6       c1,1.6,1.3,3.9,1.6,5.7c0.7,4.2,0.8,8.4,0.9,12.6c0.1,9.2-0.1,18.4-0.5,27.6c-0.4,9.1-1,18.3-1.9,27.4c-0.4,4.5-0.9,9-1.5,13.5       c-0.3,2.7-0.7,5.4-1.1,8.1c-0.2,1-0.3,2.1-0.6,3.1c-0.2,2.2-1.7,3.2-4.6,3C269.3,123.8,268.3,124.4,268.6,125.1L268.6,125.1z"/>
				</g>
			</g>
			<g id="XMLID_1916_">
				<g id="XMLID_1990_">
					<path id="XMLID_1994_" class="st1" d="M269,154.5c7-1.1,8.1-14.6,8.9-19.7c2-12.7,3.4-25.4,4.6-38.2c2.5-25.9,4.4-51.4-2-76.9       c-0.9-3.7-1.3-7.1-1.6-10.8c-0.1-1.5,0.1-5.4-1.1-6.6c-1.3-1.4-3.7-0.5-5.4-0.1c-2.6,0.6-4.4,2.9-5.8,5       c-12,18-11.9,42.8-11.3,63.4c0.5,14.4,2.1,28.6,4.2,42.8c2,13.2,3.4,26.9,8.7,39.2c0.3,0.7,1.3,0.1,1-0.6       c-4.2-9.9-5.7-20.7-7.4-31.3c-1.8-11.8-3.6-23.7-4.6-35.6c-1.6-20.8-2.5-42.9,4-63c2.1-6.4,5.1-17.6,12.8-18.8       c1.8-0.3,2.1-0.8,2.9,0.7c0.6,1,0.5,3.8,0.6,4.9c0.2,2.5,0.3,5,0.7,7.4c2,10.5,4.5,20.7,5.2,31.5c0.7,11.2,0.1,22.3-0.9,33.4       c-1.1,12.8-2.3,25.6-3.9,38.4c-0.8,6.4-1.6,12.8-2.8,19.1c-0.8,4.2-2.1,13.9-7.3,14.7C268,153.5,268.3,154.6,269,154.5       L269,154.5z"/>
				</g>
			</g>
			<g id="XMLID_1915_">
				<g id="XMLID_1983_">
					<path id="XMLID_1987_" class="st1" d="M268.9,455.8c-5.7-61.3-2.1-122.9,1.2-184.2c0.8-15.6,1.6-31.2,2.5-46.8       c0.9-16,3.5-31.5,6.6-47.3c5.1-26.5,7.9-53.5,9.1-80.5c1.4-31.5,0.7-63.1-2.7-94.4c-0.1-0.8-1.3-0.8-1.2,0       c6,55.6,4.6,112.9-5.2,168c-2.5,14.2-5.7,28.2-7,42.6c-1.4,15.5-1.9,31.2-2.7,46.8c-1.7,30.8-3.5,61.6-4.3,92.4       c-1,34.5-0.7,69,2.5,103.4C267.8,456.5,269,456.6,268.9,455.8L268.9,455.8z"/>
				</g>
			</g>
			<g id="XMLID_1914_">
				<g id="XMLID_1976_">
					<path id="XMLID_1980_" class="st1" d="M277.5,455.8c-0.9-30.9-1.7-61.7-2.5-92.6c-0.9-30.9-1.9-61.7,0.7-92.6       c4.9-58.2,17.5-115.3,20.6-173.6c1.7-31.4,2-62.9,0.5-94.3c0-0.8-1.2-0.8-1.2,0c2.6,56.8-0.2,113.8-8.2,170.1       c-4.1,28.8-8.9,57.5-11.9,86.5c-3.2,30.9-3,61.6-2.1,92.5c1,34.7,1.9,69.4,2.9,104.1C276.3,456.6,277.5,456.6,277.5,455.8       L277.5,455.8z"/>
				</g>
			</g>
			<g id="XMLID_1913_">
				<g id="XMLID_1969_">
					<path id="XMLID_1973_" class="st1" d="M287,455.8c-0.8-29.5-1.5-59.1-2.2-88.6c-0.8-30.6-1.2-60.7,2.2-91.1       c6.6-58.1,12.2-116.2,15-174.6c1.6-32.9,2.5-65.8,2.8-98.8c0-0.8-1.2-0.8-1.2,0c-0.5,59.3-3.1,118.7-7.9,177.8       c-2.3,28.8-5.3,57.4-8.8,86.1c-1.8,14.6-3.4,29.2-3.9,44c-0.6,15.5-0.1,31.1,0.3,46.6c0.9,32.9,1.6,65.8,2.5,98.7       C285.9,456.6,287.1,456.6,287,455.8L287,455.8z"/>
				</g>
			</g>
			<g id="XMLID_1912_">
				<g id="XMLID_1962_">
					<path id="XMLID_1966_" class="st1" d="M296.1,455.8c-1.7-29.5-3.2-59-3.3-88.5c-0.1-29.7,1.9-59.2,5.6-88.7       c3.7-29.8,8.4-59.4,10.8-89.3c2.4-30,2.2-60.2,0.8-90.2c-1.4-32.1-3.7-64.3-2.1-96.4c0-0.8-1.2-0.8-1.2,0       c-2.9,58.4,5.5,116.6,2.1,175c-1.8,30-6.2,59.7-10.1,89.5c-3.9,29.5-6.7,59-7,88.8c-0.4,33.3,1.4,66.6,3.3,99.8       C294.9,456.6,296.1,456.6,296.1,455.8L296.1,455.8z"/>
				</g>
			</g>
			<g id="XMLID_1910_">
				<g id="XMLID_1955_">
					<path id="XMLID_1959_" class="st1" d="M300.5,455.8c-2.3-60.5,4.2-120.8,9.8-180.9c5.4-58.3,8.1-116.5,7.1-175.1       c-0.6-32.4-1.8-64.8-3.1-97.1c0-0.8-1.2-0.8-1.2,0c2.4,58,4.6,116.1,2.8,174.1c-1.8,59.4-9.4,118.4-13.9,177.7       c-2.5,33.7-3.9,67.5-2.7,101.3C299.4,456.6,300.6,456.6,300.5,455.8L300.5,455.8z"/>
				</g>
			</g>
			<g id="XMLID_1909_">
				<g id="XMLID_1948_">
					<path id="XMLID_1952_" class="st1" d="M259.7,455.8c1.9-30.6,2.6-61.3,2.1-92c-0.2-15.4-1.1-30.7-1-46.1       c0.1-14.6,1.6-29.1,3.3-43.6c1.8-15.2,3.5-30.4,3.6-45.7c0.1-15-1-29.9-2.5-44.8c-3-28.4-7.3-56.6-10-84.9       c-3.1-31.8-4.5-64.2,1-95.9c0.1-0.8-1-1.1-1.2-0.3c-9.7,55.8,0.9,112.9,7.5,168.4c3.6,30.1,5.2,59.9,1.9,90.1       c-1.7,15.1-3.9,30.1-4.5,45.3c-0.7,15.3,0.1,30.5,0.5,45.8c0.9,34.6,0.2,69.2-1.9,103.7C258.5,456.6,259.7,456.6,259.7,455.8       L259.7,455.8z"/>
				</g>
			</g>
			<g id="XMLID_1908_">
				<g id="XMLID_1647_">
					<path id="XMLID_1945_" class="st1" d="M252.8,455.8c0.8-60.8,2.7-121.6,6.1-182.3c0.8-15.3,1.8-30.6,2.8-45.9       c0.9-14,0-27.3-2.2-41.1c-4.5-28.6-7.5-57.4-9.5-86.2c-2.2-32.5-3.1-65.1-2.6-97.7c0-0.8-1.2-0.8-1.2,0       c-0.9,56.9,2.2,114.1,10.1,170.4c2.1,15,5.1,29.9,4.7,45.1c-0.4,14.6-1.8,29.2-2.6,43.8c-1.8,30.4-3.2,60.8-4.2,91.2       c-1.2,34.2-2,68.4-2.5,102.7C251.6,456.6,252.8,456.6,252.8,455.8L252.8,455.8z"/>
				</g>
			</g>
			<g id="XMLID_1907_">
				<g id="XMLID_1611_">
					<path id="XMLID_1635_" class="st1" d="M247.5,455.8c0-60.5,0.9-121,2.7-181.4c0.9-29.8,3.3-59.6-0.4-89.3       c-3.7-29.2-7-58.5-9.5-87.8c-2.7-31.3-4.5-63.2-0.2-94.5c0.1-0.8-1.1-1.1-1.2-0.3c-3.7,27.3-2.8,55.1-0.8,82.5       c2.1,28.9,5.3,57.9,8.8,86.7c1.9,15.4,4.1,30.7,3.9,46.2c-0.1,15.1-1,30.1-1.5,45.2c-1,30-1.7,59.9-2.2,89.9       c-0.6,34.3-0.9,68.6-0.9,102.8C246.3,456.6,247.5,456.6,247.5,455.8L247.5,455.8z"/>
				</g>
			</g>
			<g id="XMLID_1906_">
				<g id="XMLID_1575_">
					<path id="XMLID_1599_" class="st1" d="M242.6,455.6C231.7,399,238,340,239.4,282.8c0.8-30.9,1.1-61.8,0.1-92.7       c-0.9-29.1-3-58.1-4.7-87.2c-2-33.4-3.6-66.8-2.3-100.2c0-0.8-1.2-0.8-1.2,0C229,61.9,235.8,121,238,180.2       c2.3,60.8-1.1,121.4-2.3,182.2c-0.6,31.2-0.2,62.8,5.7,93.5C241.6,456.7,242.7,456.4,242.6,455.6L242.6,455.6z"/>
				</g>
			</g>
			<g id="XMLID_1905_">
				<g id="XMLID_1533_">
					<path id="XMLID_1563_" class="st1" d="M308.5,455.8c0.1-58.3,3-116.4,6.9-174.6c4-59.5,6.6-119,6.3-178.7       c-0.2-33.3-1.1-66.6-2.9-99.9c0-0.8-1.2-0.8-1.2,0c3.2,59.6,3.8,119.4,1.9,179.1c-1.9,60-7.4,119.8-10.1,179.8       c-1.4,31.4-2.1,62.8-2.1,94.3C307.3,456.6,308.5,456.6,308.5,455.8L308.5,455.8z"/>
				</g>
			</g>
			<g id="XMLID_1903_">
				<g id="XMLID_1497_">
					<path id="XMLID_1521_" class="st1" d="M312.1,455.8c3.6-27.3-0.1-55.1,1.4-82.5c1.7-30.8,5.5-61.4,7.7-92.1       c4.2-59.8,5.5-119.8,5.7-179.8c0.1-32.9-0.1-65.8-0.4-98.7c0-0.8-1.2-0.8-1.2,0c0.5,59.4,0.8,118.7-0.7,178.1       c-0.7,29.6-2,59.1-3.9,88.6c-2,31.4-5.5,62.7-7.8,94.1c-1.2,15.8-1.4,31.6-1,47.5c0.3,14.9,0.9,30-1.1,44.9       C310.8,456.5,312,456.5,312.1,455.8L312.1,455.8z"/>
				</g>
			</g>
			<g id="XMLID_1902_">
				<g id="XMLID_1461_">
					<path id="XMLID_1485_" class="st1" d="M324.8,455.8c0.9-119.9,4.7-239.6,8.2-359.5c0.9-31.3,0.3-62-4.2-93       c-0.1-0.8-1.3-0.4-1.2,0.3c4.1,28.2,5.1,56.3,4.3,84.7c-0.8,29.8-1.7,59.6-2.6,89.4c-1.7,58.7-3.5,117.4-4.5,176.1       c-0.6,33.9-1,67.9-1.3,101.9C323.6,456.6,324.8,456.6,324.8,455.8L324.8,455.8z"/>
				</g>
			</g>
			<g id="XMLID_1901_">
				<g id="XMLID_1405_">
					<path id="XMLID_1449_" class="st1" d="M238.6,455.6c-8-24.5-5.8-52.2-5.6-77.6c0.2-30.6,0.4-61.2,0.7-91.7       c0.1-15.2,0.3-30.3,1.1-45.5c0.8-14.9,2.5-29.7,2.4-44.6c-0.1-15-2.1-29.9-3.8-44.8c-1.6-14.9-3-29.7-4.2-44.6       c-2.8-34.7-4.3-69.4-4.8-104.2c0-0.8-1.2-0.8-1.2,0c0.4,31.2,1.7,62.3,4,93.4c1.1,15.3,2.4,30.5,4,45.7       c1.6,15.3,3.8,30.5,4.5,45.8c0.7,14.6-0.6,29-1.6,43.5c-1.1,15.7-1.5,31.5-1.6,47.3c-0.3,30.7-0.5,61.4-0.7,92.1       c-0.1,15-0.5,30.1,0,45.1c0.4,13.5,1.3,27.4,5.6,40.3C237.7,456.7,238.9,456.4,238.6,455.6L238.6,455.6z"/>
				</g>
			</g>
			<g id="XMLID_1900_">
				<g id="XMLID_1399_">
					<path id="XMLID_1403_" class="st1" d="M208.5,2c-0.5,14.3,3,28.2,5,42.3c2.2,15.1,1.5,30.3,1,45.4c-1,30.3-2,60.6-3,90.9       c-0.5,15.8-1,31.6-1.6,47.4c-0.5,13.7-0.7,26.7,2.7,40.1c7.3,28.3,5.8,57.9,6.4,86.9c0.7,33.7,1.9,67.4,4.3,101.1       c0.1,0.8,1.3,0.8,1.2,0c-2.1-29.8-3.3-59.7-4-89.6c-0.4-14.8-0.6-29.5-0.8-44.3c-0.2-13.6-0.5-27.3-2.8-40.7       c-1.2-7-3.3-13.7-4.7-20.6c-1.6-7.7-1.6-15.5-1.4-23.3c0.4-15.1,1-30.1,1.5-45.2c1-30.3,2-60.6,3-90.9       c0.6-16.6,1.9-33.6,0.3-50.2c-1.6-16.6-6.5-32.7-5.9-49.4C209.8,1.2,208.6,1.2,208.5,2L208.5,2z"/>
				</g>
			</g>
			<g id="XMLID_1899_">
				<g id="XMLID_1369_">
					<path id="XMLID_1373_" class="st1" d="M213.9,2.2c4.2,29,8.1,58.3,8.1,87.7c0,14.5-2.2,28.8-2.5,43.2       c-0.3,14.5,3.2,28.6,4.2,42.9c1.1,14.6-0.3,29.2-1.1,43.8c-0.7,14.9,0,29.5,1.5,44.2c1.4,14.8,2.5,29.4,2.1,44.2       c-0.4,14.9-1.4,29.7-1.5,44.6c-0.3,34.5,2.4,68.9,5.1,103.2c0.1,0.8,1.3,0.8,1.2,0c-2.4-31-4.9-62.1-5.1-93.3       c-0.2-29.8,3.1-59.5,0.3-89.2c-1.4-15.4-3.2-30.7-2.7-46.2c0.4-14.6,2-29.2,1.7-43.9c-0.3-14.5-3.6-28.6-4.4-43       c-0.8-14.2,1.8-28.3,2.2-42.5c0.9-32.3-3.4-64.4-8-96.3C214.9,1.1,213.8,1.4,213.9,2.2L213.9,2.2z"/>
				</g>
			</g>
		</g>
		<g id="XMLID_1896_">
			<g id="XMLID_1393_">
				<path id="XMLID_1397_" class="st1" d="M146.6,2.2c8,24.5,5.8,52.2,5.6,77.6c-0.2,30.6-0.4,61.2-0.7,91.7      c-0.1,15.8-0.4,31.6-1.2,47.4c-0.8,14.5-2.5,29-2.3,43.6c0.2,15.3,2.3,30.5,4,45.7c1.6,14.8,3,29.5,4.1,44.3      c2.7,34.5,4.2,69,4.7,103.6c0,0.8,1.2,0.8,1.2,0c-0.4-31.3-1.7-62.6-4-93.9c-1.1-14.9-2.3-29.7-3.9-44.5      c-1.5-15.2-3.7-30.4-4.6-45.7c-0.9-15.2,0.4-30.3,1.5-45.4c1-15.1,1.4-30.2,1.6-45.3c0.4-31.4,0.5-62.7,0.7-94.1      c0.1-15,0.5-30.1,0-45.1c-0.4-13.5-1.3-27.4-5.6-40.3C147.5,1.1,146.3,1.4,146.6,2.2L146.6,2.2z"/>
			</g>
		</g>
		<g id="XMLID_1895_">
			<g id="XMLID_1387_">
				<path id="XMLID_1391_" class="st1" d="M184.4,456c-8-24.3-5.8-51.8-5.6-77c0.2-30.9,0.4-61.8,0.7-92.7      c0.1-15.2,0.3-30.3,1.1-45.5c0.8-15.2,2.6-30.3,2.4-45.5c-0.2-14.7-2.1-29.2-3.7-43.8c-1.7-15.4-3.1-30.7-4.3-46.2      c-2.7-34.4-4.2-68.8-4.7-103.3c0-0.8-1.2-0.8-1.2,0c0.4,31.2,1.7,62.5,4,93.6c1.1,15.5,2.5,30.9,4,46.3      c1.5,14.6,3.5,29.1,4.4,43.8c0.9,15.2-0.4,30.3-1.5,45.4c-1.1,15.7-1.5,31.5-1.6,47.3c-0.3,30.7-0.5,61.4-0.7,92.1      c-0.1,15.4-0.5,30.9,0.1,46.3c0.5,13.2,1.4,26.9,5.5,39.6C183.5,457.1,184.7,456.8,184.4,456L184.4,456z"/>
			</g>
		</g>
		<g id="XMLID_1894_">
			<g id="XMLID_1381_">
				<path id="XMLID_1385_" class="st1" d="M154.3,2c-0.5,14.3,3,28.2,5,42.3c2.2,15.1,1.5,30.3,1,45.4c-1,30.3-2,60.6-3,90.9      c-0.5,15.8-1,31.6-1.6,47.4c-0.5,13.7-0.7,26.7,2.7,40.1c7.3,28.3,5.8,57.9,6.4,86.9c0.7,33.7,1.9,67.4,4.3,101.1      c0.1,0.8,1.3,0.8,1.2,0c-2.1-29.8-3.3-59.7-4-89.6c-0.4-14.8-0.6-29.5-0.8-44.3c-0.2-13.6-0.5-27.3-2.8-40.7      c-1.2-7-3.3-13.7-4.7-20.6c-1.6-7.7-1.6-15.5-1.4-23.3c0.4-15.1,1-30.1,1.5-45.2c1-30.3,2-60.6,3-90.9      c0.6-16.6,1.9-33.6,0.3-50.2c-1.6-16.6-6.5-32.7-5.9-49.4C155.6,1.2,154.4,1.2,154.3,2L154.3,2z"/>
			</g>
		</g>
		<g id="XMLID_1893_">
			<g id="XMLID_1375_">
				<path id="XMLID_1379_" class="st1" d="M159.7,2.2c4.2,29,8.1,58.3,8.1,87.7c0,14.5-2.2,28.8-2.5,43.2      c-0.3,14.5,3.2,28.6,4.2,42.9c1.1,14.6-0.3,29.2-1.1,43.8c-0.7,14.9,0,29.5,1.5,44.2c1.4,14.8,2.5,29.4,2.1,44.2      c-0.4,14.9-1.4,29.7-1.5,44.6c-0.3,34.5,2.4,68.9,5.1,103.2c0.1,0.8,1.3,0.8,1.2,0c-2.4-31-4.9-62.1-5.1-93.3      c-0.2-29.8,3.1-59.5,0.3-89.2c-1.4-15.4-3.2-30.7-2.7-46.2c0.4-14.6,2-29.2,1.7-43.9c-0.3-14.5-3.6-28.6-4.4-43      c-0.8-14.2,1.8-28.3,2.2-42.5c0.9-32.3-3.4-64.4-8-96.3C160.7,1.1,159.6,1.4,159.7,2.2L159.7,2.2z"/>
			</g>
		</g>
		<g id="XMLID_1880_">
			<g id="XMLID_1892_">
				<g id="XMLID_1363_">
					<path id="XMLID_1367_" class="st1" d="M110.5,1.8c-0.6,1.9-0.5,4-0.5,5.9c0,1,0,2-0.1,2.9c0,0.1-0.4,3.2-1.1,2.8       c-0.2-0.1-0.3-1-0.3-1.2c-0.7-3.3,0.2-7.5-1.4-10.6c-0.4-0.7-1.4-0.1-1,0.6c1.1,2.1,0.8,5.3,1,7.6c0.1,1.2,0,4,1.2,4.7       c3.4,2,3.1-11.2,3.5-12.5C111.9,1.4,110.7,1.1,110.5,1.8L110.5,1.8z"/>
				</g>
			</g>
			<g id="XMLID_1891_">
				<g id="XMLID_1357_">
					<path id="XMLID_1361_" class="st1" d="M118.4,2c-1,10.2-1.9,20.4-4,30.4c-0.9,4.2-2,8.4-3.6,12.4c-0.9,2.4-1.9,4.7-2.5,7.2       c-0.5,2-0.4,4.9-1.3,6.7c-0.1,0.4-0.2,0.8-0.3,1.3c-1-0.2-1.9-0.4-2.9-0.6c-0.5-0.5-0.6-2.3-0.8-3.1c-0.5-2.3-0.8-4.7-1.2-7.1       c-0.8-5.3-1.4-10.7-1.8-16.1C99.3,22.8,98.9,12.4,99.1,2c0-0.8-1.2-0.8-1.2,0c-0.1,5.8,1.2,63,8.2,61.1       c2.6-0.7,2.5-6.2,2.9-8.1c1.1-5.9,3.9-11.2,5.4-17c3.1-11.7,4-24,5.2-36C119.7,1.2,118.5,1.2,118.4,2L118.4,2z"/>
				</g>
			</g>
			<g id="XMLID_1889_">
				<g id="XMLID_1351_">
					<path id="XMLID_1355_" class="st1" d="M123.9,2c-1.8,14.8-3.6,29.6-5,44.4c-0.8,8.7-0.1,17.8-2.6,26.2c-1.1,3.7-2.6,7.4-4,11       c-1.4,3.6-2.3,8.8-5.1,11.5c-5.2,5.1-6.8-4.6-7.3-8c-0.7-4.3-1-8.7-1.4-13c-0.7-7.9-1.3-15.9-1.6-23.8C96.1,34.2,96.2,18,98,2       c0.1-0.8-1.1-0.8-1.2,0c-1.6,14.8-1.9,29.8-1.3,44.7c0.5,14.2,0.9,29.1,3.6,43.1c0.5,2.6,1.5,8.4,5.1,8.7       c3.6,0.3,5.6-5.5,6.7-7.9c2.6-6.2,5.3-12.7,7-19.2c1.8-6.6,1.3-13.5,1.8-20.3c1.2-16.3,3.3-32.8,5.3-49.1       C125.2,1.2,124,1.2,123.9,2L123.9,2z"/>
				</g>
			</g>
			<g id="XMLID_1888_">
				<g id="XMLID_1345_">
					<path id="XMLID_1349_" class="st1" d="M126.4,2c-1.2,18-2.3,36-3.4,54c-1.2,18.4-1.7,37.1-5.4,55.2c-1.7,8.1-3.9,16.3-8.1,23.5       c-0.8,1.4-1.7,3.4-3,4.4c-0.3,0.3-0.5,0.7-0.8,1c-1.8-0.2-3.7-0.5-5.5-0.7c-0.7-0.5-1.4-3.1-1.7-4.3       c-1.4-4.9-1.4-10.2-1.7-15.3c-1-18.2-1.8-36.3-2.3-54.5C93.8,44.2,93.5,23.1,93.5,2c0-0.8-1.2-0.8-1.2,0       c0,21.4,0.3,42.9,1,64.3C93.6,76.8,94,87.4,94.4,98c0.5,10.6,0.5,21.5,1.9,32.1c0.4,3.4,1.7,13,6.9,12.8       c4.9-0.1,8.6-9.6,10.1-13c7.7-17.8,8.6-38.2,9.9-57.3c1.5-23.5,2.9-47,4.5-70.5C127.7,1.2,126.5,1.2,126.4,2L126.4,2z"/>
				</g>
			</g>
			<g id="XMLID_1887_">
				<g id="XMLID_1339_">
					<path id="XMLID_1343_" class="st1" d="M130.2,2c-2.6,42.9-4.9,85.9-7.2,128.8c-1.1,20-0.9,40.8-6,60.2       c-2.2,8.3-6.6,15.8-9,24.1c-1.1,3.9-1.4,7.6-1.6,11.6c-0.1,1.7-0.6,8.8-2.9,4.9c-1.1-1.9-1.1-6-1.5-8.2       c-4.7-24.1-10.6-48.1-10.9-72.7c0-0.8-1.2-0.8-1.2,0c0.3,28.5,8.1,56,12.9,83.9c0,0.2,0.2,0.4,0.4,0.4c3.4,0.6,4-4.3,4.2-6.8       c0.4-4.1,0.4-8.1,1.5-12.1c1.1-4,2.7-7.7,4.4-11.5c5.7-13,7.8-26.6,8.9-40.7c2.7-34.1,3.8-68.4,5.7-102.6       c1.1-19.8,2.2-39.6,3.4-59.4C131.5,1.2,130.3,1.2,130.2,2L130.2,2z"/>
				</g>
			</g>
			<g id="XMLID_1886_">
				<g id="XMLID_1333_">
					<path id="XMLID_1337_" class="st1" d="M135.1,1.8C126.2,66.5,131.9,132,129,197c-0.8,16.8-2.3,33.7-6,50.1       c-3.4,15.2-7.3,29.9-8.5,45.5c-1.3,16.7-2.1,33.5-3,50.2c-0.2,3.2,0.5,9.2-1.2,11.9c-0.8,1.2,0.5,1.2-1.7,1       c-2.2-0.2-1-0.1-1.7-1.4c-0.9-1.9-0.6-5.3-0.8-7.4c-0.8-8.8-1.7-17.6-2.6-26.3c-4-38.5-8.5-76.9-10.8-115.6       c0-0.8-1.2-0.8-1.2,0c2.2,36.7,6.3,73.2,10.2,109.7c1,9.1,1.9,18.2,2.8,27.3c0.4,3.7,0.6,7.5,1.1,11.3c0.2,1.5,0.4,4.6,2,5.5       c5.6,3,5.6-25.3,5.7-27.7c1.1-18.2,1.2-36.7,4.2-54.7c2.8-16.2,7.8-31.8,10-48.1c4.8-35.9,3.5-72.5,3.5-108.6       c0-39.1-0.1-78.6,5.3-117.5C136.4,1.4,135.3,1.1,135.1,1.8L135.1,1.8z"/>
				</g>
			</g>
			<g id="XMLID_1885_">
				<g id="XMLID_1327_">
					<path id="XMLID_1331_" class="st1" d="M121.2,456.2c-1.4-14.1-2.7-28.3-2.4-42.4c0.3-14.7,1.8-29.4,3-44       c2.4-29.9,4.8-59.9,7.1-89.8c2.3-29.5,4.5-59.1,5.4-88.7c0.9-29.5,0.5-59,1.1-88.6c0.6-33.5,1.2-67.5,7-100.5       c0.1-0.8-1-1.1-1.2-0.3c-5.1,28.7-6,57.9-6.8,86.9c-0.8,29.9-0.5,59.8-1.1,89.7c-1.2,59.9-7.2,119.7-12,179.4       c-1.3,16.7-3,33.3-3.7,50c-0.7,16.2,0.6,32.2,2.2,48.3C120.1,456.9,121.3,456.9,121.2,456.2L121.2,456.2z"/>
				</g>
			</g>
			<g id="XMLID_1884_">
				<g id="XMLID_1321_">
					<path id="XMLID_1325_" class="st1" d="M105.6,456.3c4.8-27.7,0.2-56.4-2.7-84.1c-1.5-14.5-3.1-29-4.2-43.5       c-1.1-14.9-5.3-29.5-5.2-44.4c0-0.8-1.2-0.8-1.2,0c-0.1,14.4,3.9,28.3,5,42.6c1.2,14.5,2.7,29,4.2,43.4       c2.9,28.2,7.8,57.5,2.9,85.7C104.3,456.8,105.5,457.1,105.6,456.3L105.6,456.3z"/>
				</g>
			</g>
			<g id="XMLID_1882_">
				<g id="XMLID_1308_">
					<path id="XMLID_1319_" class="st1" d="M100.6,456.2c-0.2-15.1,0-30.2-0.5-45.2c-0.2-8-1.7-15.8-2.3-23.8       c-0.6-8.1-1.8-16-2.9-24c-0.1-0.8-1.3-0.8-1.2,0c1,7.7,2.2,15.4,2.8,23.1c0.6,8.2,2.1,16.4,2.3,24.6       c0.4,15.1,0.3,30.1,0.5,45.2C99.4,457,100.6,457,100.6,456.2L100.6,456.2z"/>
				</g>
			</g>
			<g id="XMLID_1881_">
				<g id="XMLID_1299_">
					<path id="XMLID_1305_" class="st1" d="M127.2,456c-2.7-14.3-1.3-29.1-0.5-43.5c0.9-15.1,1.8-30.2,2.8-45.3       c1.9-29.6,3.9-59.2,5.8-88.8c1.9-29.3,4-58.7,4.2-88.1c0.3-30.4-0.9-60.9-1.4-91.3c-0.3-16.4-0.4-32.8,0.4-49.1       c0.8-16,3.9-31.9,4-48c0-0.8-1.2-0.8-1.2,0c-0.1,14.1-2.7,28.1-3.7,42.1c-1,15-1,30-0.9,45c0.3,30.4,1.6,60.9,1.6,91.3       c0,59.7-5.7,119.4-9.6,178.9c-1.1,17.1-2.2,34.1-3.2,51.2c-0.9,15.2-2.5,30.7,0.4,45.7C126.2,457.1,127.4,456.8,127.2,456       L127.2,456z"/>
				</g>
			</g>
		</g>
		<g id="XMLID_1879_">
			<g id="XMLID_1291_">
				<path id="XMLID_1297_" class="st1" d="M143.4,2c1.7,16.1,3.3,32.3,2,48.5c-1.2,15.5-2.7,30.6-2,46.2c1.4,31.5,2,62.7,0.8,94.3      c-1.1,31.4-2.7,62.9-2,94.3c0.7,27.2,2.4,54.4,4.5,81.5c2.4,29.8,5.1,59.6,6.4,89.4c0,0.8,1.2,0.8,1.2,0      c-2.3-53.1-8.7-106-10.6-159.2c-2.3-62.9,4.9-125.6,1.4-188.5c-1-17.7-0.9-34.8,0.9-52.4C148,38,146.5,20.1,144.6,2      C144.5,1.2,143.3,1.2,143.4,2L143.4,2z"/>
			</g>
		</g>
		<g id="XMLID_1878_">
			<g id="XMLID_1284_">
				<path id="XMLID_1289_" class="st1" d="M86.2,3.3c2.8,118.5,5.4,237,7.2,355.5c0.5,32.8,0.8,65.6-0.9,98.4c0,0.8,1.2,0.8,1.2,0      c3.1-58.9,0.6-118.1-0.3-177.1c-1-59-2.3-118.1-3.6-177.1C89,69.7,88.2,36.5,87.4,3.3C87.4,2.5,86.2,2.5,86.2,3.3L86.2,3.3z"/>
			</g>
		</g>
		<g id="XMLID_1877_">
			<g id="XMLID_1278_">
				<path id="XMLID_1282_" class="st1" d="M83,81.9c3.5,17.1,0.3,34.5-0.6,51.7c-0.9,17,1.7,34,0.7,51.1c-1,18-2.6,35.4-1.3,53.5      c1.3,17.7,2.9,35.3,3.9,52.9c1.2,20.4,2,40.7,2.4,61.1c0,0.8,1.2,0.8,1.2,0c-0.8-36.5-3.1-72.8-5.9-109.1      c-1.4-18.1-0.7-35.6,0.6-53.6c1.3-17.4-1.1-34.7-0.6-52.1C84,118.8,88,100,84.1,81.6C84,80.8,82.8,81.1,83,81.9L83,81.9z"/>
			</g>
		</g>
		<g id="XMLID_1875_">
			<g id="XMLID_1272_">
				<path id="XMLID_1276_" class="st1" d="M135.1,458c0.4-15.6,3.2-30.9,3.6-46.5c0.2-7.9-0.3-15.9-0.6-23.8      c-0.2-3.8-0.3-7.6-0.3-11.4c0-1.2-0.5-4.3,0.1-5.1c2.4-2.8,2.5,3.3,2.5,3.9c0.8,7.6,0.6,15.3,0.5,22.9      c-0.1,6.8,1.2,12.7,2.8,19.3c1.7,7.5,1.2,15.1,0.7,22.7c-0.3,3.9-0.5,7.8-0.4,11.6c0.1,1.5-0.1,3.1,0.9,4.3      c0.2,0.3,0.8,0.2,0.9-0.1c0.1-0.1,0.1-0.3,0.2-0.4c0.3-0.7-0.7-1.3-1-0.6c0.9-1.8,0.1-5.6,0.2-7.7c0-1.8,0.2-3.6,0.3-5.4      c0.3-4.2,0.6-8.3,0.7-12.5c0.1-8.4-3-15.9-3.8-24.1c-0.8-8.7,0.2-17.5-0.4-26.2c-0.1-1.7,0.1-11.4-3.1-11.5      c-4.7-0.2-1.4,33.4-1.4,37.4c0.2,17.8-3.2,35.4-3.7,53.2C133.8,458.7,135,458.7,135.1,458L135.1,458z"/>
			</g>
		</g>
		<g id="XMLID_1874_">
			<g id="XMLID_1266_">
				<path id="XMLID_1270_" class="st1" d="M89.6,138.1c1.1,5.8,5.5,48.9,19.8,36.5c6.6-5.7,7.5-16.6,8.9-24.5      c2.3-12.7,4.6-25.5,7-38.2c0.1-0.8-1-1.1-1.2-0.3c-1.7,9.1-3.3,18.3-5,27.4c-1.5,8.4-2.4,17.3-5.2,25.4      c-1.3,3.9-4.2,11-9.3,11.1c-5.6,0.1-7.7-7.9-8.8-12c-2.2-8.4-3.5-17.1-5.1-25.6C90.6,137.1,89.4,137.4,89.6,138.1L89.6,138.1z"/>
			</g>
		</g>
		<g id="XMLID_1873_">
			<g id="XMLID_1260_">
				<path id="XMLID_1264_" class="st1" d="M95.7,248.7c1,5.8,2.2,11.5,3.8,17.2c0.7,2.6,1.7,9.5,4.7,10.8c2,0.9,2.9-0.2,3.8-1.9      c0.9-1.6,1.1-3.8,1.6-5.6c0.8-2.5,1.8-5,2.7-7.4c1.8-4.8,2.5-9.6,3.9-14.5c1.3-4.6,4.1-8.7,5.5-13.4c3.5-11.8,5.4-24.2,8-36.3      c0.2-0.8-1-1.1-1.2-0.3c-2,9.5-3.9,19-6,28.4c-1.1,5-2.3,10-4.5,14.6c-1.5,3-2.7,5.5-3.4,8.8c-0.8,4-1.7,7.8-3.1,11.6      c-0.7,2-1.5,3.9-2.3,5.9c-0.6,1.6-0.8,4-1.7,5.5c-2.9,5.1-4.8,0.6-5.7-2.2c-0.7-2.3-1.3-4.6-1.9-6.9c-1.2-4.8-2.2-9.7-3.1-14.6      C96.7,247.6,95.5,247.9,95.7,248.7L95.7,248.7z"/>
			</g>
		</g>
		<g id="XMLID_1872_">
			<g id="XMLID_1254_">
				<path id="XMLID_1258_" class="st1" d="M177.3,1.8c-6.3,39.9,1.3,80.8,7.1,120.2c0.1,0.5,0.7,0.5,1,0.3c2.3-1.8,2.4-5.3,2.5-8      c0.3-5,0.2-10.1,0-15.1c-0.4-11.1-1.4-22.1-2.4-33.1c-2-21.3-4.3-42.8-1.8-64.1c0.1-0.8-1.1-0.8-1.2,0      c-3.5,29.6,2.1,59.4,3.8,88.9c0.4,7,0.7,14.1,0.5,21.1c-0.1,2,0.2,4.7-0.6,6.5c-1.1,2.4-1.1-0.2-1.3-1.6      c-0.7-4.5-1.3-8.9-2-13.4c-2.3-15.9-4.5-31.8-5.7-47.8c-1.3-17.9-1.6-35.9,1.2-53.7C178.5,1.4,177.4,1.1,177.3,1.8L177.3,1.8z"/>
			</g>
		</g>
		<g id="XMLID_1871_">
			<g id="XMLID_1248_">
				<path id="XMLID_1252_" class="st1" d="M189.9,456.7c-6.7-37.7-5.5-76.6-5.9-114.7c-0.1-9.7-0.1-19.3,0.1-29      c0-1.3-0.6-2.8,0.9-3.3c1.6-0.5,0.5-0.1,1.2,1c0.9,1.5,0.9,4.4,1.2,6.2c0.9,4.8,1.8,9.6,2.5,14.5c2.9,19.3,3.3,38.6,3.8,58      c0.5,22.2,0.9,44.3,1.4,66.5c0,0.8,1.2,0.8,1.2,0c-0.6-27.4-1.1-54.8-1.8-82.1c-0.3-12.5-1-24.8-2.7-37.2      c-0.9-6.4-1.9-12.8-3.1-19.1c-0.6-3.1-0.6-9.7-3.8-11.5c-0.2-0.1-0.4-0.1-0.6,0c-2.9,2.2-1.6,8.6-1.6,11.7      c-0.1,6.4-0.1,12.9,0,19.3c0.1,14,0.4,28,0.6,42c0.4,26,0.9,52.2,5.5,77.9C188.9,457.8,190,457.5,189.9,456.7L189.9,456.7z"/>
			</g>
		</g>
	</g>
</g><g id="XMLID_254_">
	<rect id="XMLID_253_" x="26.299999237060547" y="448" class="st2" width="288.5" height="9.899999618530273"/>
	<path id="XMLID_252_" class="st3" d="M308.5,436.6h14.3c5.9,0,10.7,4.8,10.7,10.7v0c0,5.9-4.8,10.7-10.7,10.7h-14.3   c-5.9,0-10.7-4.8-10.7-10.7v0C297.8,441.4,302.6,436.6,308.5,436.6z"/>
	<path id="XMLID_251_" class="st3" d="M12.2,436.6h14.1c5.9,0,10.7,4.8,10.7,10.7v0c0,5.9-4.8,10.7-10.7,10.7H12.2   c-5.9,0-10.7-4.8-10.7-10.7v0C1.5,441.4,6.3,436.6,12.2,436.6z"/>
	<g id="XMLID_245_">
		<path id="XMLID_250_" class="st4" d="M323.2,2h-12.3c1.1,0,2.1,0.6,2.1,1.7v8.9c0,1.1-1,2.4-2.1,2.4h-0.6    c5.8,0,10.7,4.2,10.7,10.1v-2.8c0-1.1,0.5-1.3,1.6-1.3h8.9c1.1,0,2.5,0.2,2.5,1.3V12.2C334,6.4,329.1,2,323.2,2z"/>
		<path id="XMLID_249_" class="st4" d="M308.7,2h-8.9c-1.1,0-1.8,0.6-1.8,1.7v8.5C298,6.4,302.8,2,308.7,2z"/>
		<path id="XMLID_248_" class="st4" d="M313,12.6V3.7c0-1.1-1-1.7-2.1-1.7h-2.2C302.8,2,298,6.4,298,12.2v0.4c0,1.1,0.7,2.4,1.8,2.4    h10.5h0.6C312,15,313,13.7,313,12.6z"/>
		<path id="XMLID_247_" class="st4" d="M323.2,38h8.3c1.1,0,2.5-1.5,2.5-2.6v-8.6C334,32.6,329.1,38,323.2,38z"/>
		<path id="XMLID_246_" class="st4" d="M331.5,21h-8.9c-1.1,0-1.6,0.2-1.6,1.3v2.8v10.3c0,1.1,0.5,2.6,1.6,2.6h0.6    c5.8,0,10.8-5.4,10.8-11.3v-4.4C334,21.2,332.6,21,331.5,21z"/>
	</g>
	<linearGradient id="XMLID_2_" gradientUnits="userSpaceOnUse" x1="19" y1="2" x2="19" y2="38">
		<stop offset="1.685399e-002" style="stop-color:#FBC536"/>
		<stop offset="0.4373" style="stop-color:#FCD15F"/>
		<stop offset="0.7942" style="stop-color:#FDD97B"/>
		<stop offset="1" style="stop-color:#FDDC86"/>
	</linearGradient>
	<path id="XMLID_2696_" class="st5" d="M35.2,2h-8.6h-4.4H12C6.2,2,1,6.1,1,12v12.3v2.2v8.9C1,36.5,2.4,38,3.5,38H12h0.4   c1.1,0,1.6-1.5,1.6-2.6V24.9C14,19,19.1,15,24.9,15h10.3c1.1,0,1.8-1.3,1.8-2.4V12V3.7C37,2.6,36.3,2,35.2,2z"/>
	<g id="XMLID_213_">
		<linearGradient id="XMLID_3_" gradientUnits="userSpaceOnUse" x1="19" y1="448" x2="19" y2="412">
			<stop offset="1.685399e-002" style="stop-color:#FBC536"/>
			<stop offset="0.4373" style="stop-color:#FCD15F"/>
			<stop offset="0.7942" style="stop-color:#FDD97B"/>
			<stop offset="1" style="stop-color:#FDDC86"/>
		</linearGradient>
		<path id="XMLID_214_" class="st6" d="M35.2,435H24.7c-5.8,0-10.7-4.9-10.7-10.7V414c0-1.1-0.5-2-1.6-2h-0.6H3.5    c-1.1,0-2.5,0.9-2.5,2v8.6v4.4v10.1C1,443,5.9,448,11.8,448h12.3h2.2h8.9c1.1,0,1.8-1.2,1.8-2.3v-8.5v-0.4    C37,435.7,36.3,435,35.2,435z"/>
		<linearGradient id="XMLID_4_" gradientUnits="userSpaceOnUse" x1="316" y1="448" x2="316" y2="412">
			<stop offset="1.685399e-002" style="stop-color:#FBC536"/>
			<stop offset="0.4373" style="stop-color:#FCD15F"/>
			<stop offset="0.7942" style="stop-color:#FDD97B"/>
			<stop offset="1" style="stop-color:#FDDC86"/>
		</linearGradient>
		<path id="XMLID_235_" class="st7" d="M331.5,412H323h-0.4c-1.1,0-1.6,0.9-1.6,2v10.5c0,5.8-5.1,10.5-10.9,10.5h-10.3    c-1.1,0-1.8,0.7-1.8,1.8v0.6v8.3c0,1.1,0.7,2.3,1.8,2.3h8.6h4.4H323c5.8,0,11-4.8,11-10.6V425v-2.2V414    C334,412.9,332.6,412,331.5,412z"/>
	</g>
	<linearGradient id="XMLID_6_" gradientUnits="userSpaceOnUse" x1="316" y1="2" x2="316" y2="38">
		<stop offset="1.685399e-002" style="stop-color:#FBC536"/>
		<stop offset="0.4373" style="stop-color:#FCD15F"/>
		<stop offset="0.7942" style="stop-color:#FDD97B"/>
		<stop offset="1" style="stop-color:#FDDC86"/>
	</linearGradient>
	<path id="XMLID_240_" class="st8" d="M323.2,2h-12.3h-2.2h-8.9c-1.1,0-1.8,0.6-1.8,1.7v8.5v0.4c0,1.1,0.7,2.4,1.8,2.4h10.5   c5.8,0,10.7,4.2,10.7,10.1v10.3c0,1.1,0.5,2.6,1.6,2.6h0.6h8.3c1.1,0,2.5-1.5,2.5-2.6v-8.6v-4.4V12.2C334,6.4,329.1,2,323.2,2z"/>
	<path id="XMLID_174_" class="st9" d="M323,459.4H12c-6.6,0-12-5.4-12-12V12.5c0-6.6,5.4-12,12-12h311c6.6,0,12,5.4,12,12v434.9   C335,454.1,329.6,459.4,323,459.4z M12,3.5c-5,0-9,4-9,9v434.9c0,5,4,9,9,9h311c5,0,9-4,9-9V12.5c0-5-4-9-9-9H12z"/>
	<path id="XMLID_117_" class="st9" d="M323,449.5H12c-6.6,0-12-5.4-12-12v-425c0-6.6,5.4-12,12-12h311c6.6,0,12,5.4,12,12v425   C335,444.2,329.6,449.5,323,449.5z M12,3.5c-5,0-9,4-9,9v425c0,5,4,9,9,9h311c5,0,9-4,9-9v-425c0-5-4-9-9-9H12z"/>
</g></g></svg>