<?xml version="1.0" encoding="utf-8"?>
<!-- Generator: Adobe Illustrator 19.0.0, SVG Export Plug-In . SVG Version: 6.00 Build 0)  -->
<svg version="1.1" id="Layer_1" xmlns="http://www.w3.org/2000/svg" xmlns:xlink="http://www.w3.org/1999/xlink" x="0px" y="0px"
	 viewBox="0 0 283.5 56.7" style="enable-background:new 0 0 283.5 56.7;" xml:space="preserve">
<style type="text/css">
	.st0{fill:url(#XMLID_18_);}
	.st1{fill:url(#XMLID_19_);}
	.st2{fill:url(#XMLID_20_);}
	.st3{fill:url(#XMLID_21_);}
	.st4{fill:url(#XMLID_22_);}
	.st5{fill:url(#XMLID_23_);}
	.st6{fill:url(#XMLID_24_);}
	.st7{fill:url(#XMLID_25_);}
	.st8{fill:url(#XMLID_26_);}
	.st9{fill:url(#XMLID_27_);}
	.st10{fill:url(#XMLID_28_);}
	.st11{fill:url(#XMLID_29_);}
	.st12{fill:url(#XMLID_30_);}
	.st13{fill:url(#XMLID_31_);}
</style>
<g id="XMLID_1238_">
	
		<linearGradient id="XMLID_18_" gradientUnits="userSpaceOnUse" x1="16.8985" y1="12.6213" x2="16.8985" y2="39.4632" gradientTransform="matrix(1 0 0 -1 0 56.11)">
		<stop  offset="1.685399e-002" style="stop-color:#FBC536"/>
		<stop  offset="0.4373" style="stop-color:#FCD160"/>
		<stop  offset="0.7942" style="stop-color:#FDD97C"/>
		<stop  offset="1" style="stop-color:#FDDC86"/>
	</linearGradient>
	<path id="XMLID_1239_" class="st0" d="M31.3,29c0,7.7-4.3,14.5-13.9,14.5c-4.2,0-6.5-0.5-8.6-0.5s-4.6,0.2-5,0.2
		c-0.5,0-1.4-0.2-1.4-0.7c0-0.7,1.4-0.8,2.5-1.3c1.4-0.7,2.1-1.5,2.1-3.2V21.8c0-2.5-1.1-2.5-3.7-3.3c-0.4-0.1-0.7-0.4-0.7-0.7
		c0-0.5,0.6-0.8,1.5-0.8c1.4,0,2.3,0,3.6,0c2.7,0,6.1-0.4,8.8-0.4C24,16.6,31.3,21.5,31.3,29z M11.1,37.7c0,3,1.2,3.8,7.1,3.8
		c5.2,0,8.1-5.9,8.1-11.5c0-6.5-5-11.3-11.3-11.3c-1.9,0-3.8,0.5-3.8,1.4v17.6H11.1z"/>
	
		<linearGradient id="XMLID_19_" gradientUnits="userSpaceOnUse" x1="44.0978" y1="12.5908" x2="44.0978" y2="32.0233" gradientTransform="matrix(1 0 0 -1 0 56.11)">
		<stop  offset="1.685399e-002" style="stop-color:#FBC536"/>
		<stop  offset="0.4373" style="stop-color:#FCD160"/>
		<stop  offset="0.7942" style="stop-color:#FDD97C"/>
		<stop  offset="1" style="stop-color:#FDDC86"/>
	</linearGradient>
	<path id="XMLID_1242_" class="st1" d="M53.9,32.9c0,5.7-4.5,10.6-10.2,10.6c-5.5,0-9.4-4.6-9.4-9.9c0-5.3,4.9-9.5,9.6-9.5
		C49.1,24.1,53.9,27.8,53.9,32.9z M44.9,41.5c3.3,0,4.6-4,4.6-7.2c0-3.9-2-8.2-5.9-8.2c-3.2,0-4.9,3.6-4.9,6.7
		C38.7,36.8,40.7,41.5,44.9,41.5z"/>
	
		<linearGradient id="XMLID_20_" gradientUnits="userSpaceOnUse" x1="69.2185" y1="12.3246" x2="69.2185" y2="31.7129" gradientTransform="matrix(1 0 0 -1 0 56.11)">
		<stop  offset="1.685399e-002" style="stop-color:#FBC536"/>
		<stop  offset="0.4373" style="stop-color:#FCD160"/>
		<stop  offset="0.7942" style="stop-color:#FDD97C"/>
		<stop  offset="1" style="stop-color:#FDDC86"/>
	</linearGradient>
	<path id="XMLID_2555_" class="st2" d="M76.6,25.3c0-0.5,0.4-0.8,1.1-0.8c0.7,0,1.8,0.2,2.5,0.2c0.7,0,1.4-0.2,2.1-0.2
		c0.7,0,1.1,0.5,1.1,0.8c0,0.5-0.8,0.8-1.5,1.1c-0.5,0.1-1.3,1-1.9,2.5l-3.6,8.9c-0.7,1.9-2,6.1-2.9,6.1c-0.5,0-0.8-1.1-1.1-1.8
		L69,32.9l-1.9,4.8c-0.7,1.9-2,6.1-2.9,6.1c-0.5,0-0.8-1.1-1.1-1.8l-4.9-12.8c-0.5-1.2-1.1-2.6-1.8-2.9s-1.4-0.6-1.4-1.1
		s0.4-0.8,1.1-0.8s2.1,0.2,2.9,0.2s2.5-0.2,3.2-0.2s1.1,0.5,1.1,0.8c0,0.5-0.5,0.8-1.5,1.1c-0.2,0-0.4,0.6-0.2,1.1l3.2,8.1
		c0.1,0.5,0.6,1.8,0.8,1.8c0.4,0,0.6-1.3,0.8-1.8l1.8-4.9L67.6,29c-0.5-1.2-1.1-2.6-1.8-2.9c-0.7-0.2-1.4-0.6-1.4-1.1
		s0.4-0.8,1.1-0.8c0.7,0,2.1,0.2,2.9,0.2c0.7,0,3.1-0.2,3.7-0.2c0.7,0,1.1,0.5,1.1,0.8c0,0.5-0.5,0.8-1.3,1.2
		c-0.5,0.2-1.1,0.8-0.7,1.8l2.9,7.4c0.1,0.5,0.6,1.7,0.8,1.7c0.4,0,0.6-1.2,0.8-1.7l2.5-6.7c0.4-0.8,0.5-1.5,0.5-1.8
		c0-0.5-0.5-0.7-0.7-0.8C77.2,26.1,76.6,25.7,76.6,25.3z"/>
	
		<linearGradient id="XMLID_21_" gradientUnits="userSpaceOnUse" x1="94.8737" y1="12.8588" x2="94.8737" y2="32.3801" gradientTransform="matrix(1 0 0 -1 0 56.11)">
		<stop  offset="1.685399e-002" style="stop-color:#FBC536"/>
		<stop  offset="0.4373" style="stop-color:#FCD160"/>
		<stop  offset="0.7942" style="stop-color:#FDD97C"/>
		<stop  offset="1" style="stop-color:#FDDC86"/>
	</linearGradient>
	<path id="XMLID_2698_" class="st3" d="M104.4,41.2c1.2,0.4,1.5,0.7,1.5,1.2s0,0.8-1.2,0.8c-1,0-3.2-0.2-3.9-0.2
		c-0.8,0-2.3,0.2-3.3,0.2c-1.2,0-1.3-0.5-1.3-0.8c0-0.4,0.5-0.8,1.8-1.2c0.8-0.2,1.1-1.8,1.1-2.9v-6.8c0-2.6-1.5-5.2-3.8-5.2
		c-2.6,0-4.4,1.5-4.4,4.9v7.1c0,1.1,0.1,2.6,1.1,2.9c1.2,0.4,1.7,0.7,1.7,1.2s-0.1,0.8-1.3,0.8c-1,0-2.5-0.2-3.2-0.2
		c-0.8,0-3,0.2-3.9,0.2c-1.2,0-1.3-0.5-1.3-0.8c0-0.4,0.5-0.8,1.8-1.2c1.2-0.4,1.7-1.8,1.7-2.9v-8.6c0-0.7-0.7-1.9-1.8-2.3
		c-0.5-0.1-1-0.5-1-1s0.7-0.8,1.3-1.1c0.5-0.2,4.2-1.8,4.6-1.8S91,24.1,91,25V26c0,0.7,0.5,0,0.8-0.2c1.4-1.2,3.2-1.8,5.5-1.8
		c3.1,0,5.6,3,5.6,6.2v8.1C102.7,39.5,103.2,40.9,104.4,41.2z"/>
	
		<linearGradient id="XMLID_22_" gradientUnits="userSpaceOnUse" x1="112.9273" y1="12.8569" x2="112.9273" y2="43.1443" gradientTransform="matrix(1 0 0 -1 0 56.11)">
		<stop  offset="1.685399e-002" style="stop-color:#FBC536"/>
		<stop  offset="0.4373" style="stop-color:#FCD160"/>
		<stop  offset="0.7942" style="stop-color:#FDD97C"/>
		<stop  offset="1" style="stop-color:#FDDC86"/>
	</linearGradient>
	<path id="XMLID_3428_" class="st4" d="M109.5,15.9c-0.5-0.1-1.1-0.5-1.1-1.1c0-0.6,0.7-0.8,1.3-1c1.8-0.4,4.2-1.1,4.6-1.1
		s0.5,0.4,0.5,1.2v24.2c0,1.1,0.5,2.5,1.7,2.9c1.2,0.4,1.9,0.7,1.9,1.2s-0.4,0.8-1.5,0.8c-1,0-3.2-0.2-3.9-0.2c-0.8,0-3,0.2-3.9,0.2
		c-1.2,0-1.5-0.5-1.5-0.8c0-0.4,0.7-0.8,1.9-1.2c1.2-0.4,1.7-1.8,1.7-2.9V18C111.3,17.2,110.6,16.4,109.5,15.9z"/>
	
		<linearGradient id="XMLID_23_" gradientUnits="userSpaceOnUse" x1="129.9714" y1="12.5908" x2="129.9714" y2="32.0233" gradientTransform="matrix(1 0 0 -1 0 56.11)">
		<stop  offset="1.685399e-002" style="stop-color:#FBC536"/>
		<stop  offset="0.4373" style="stop-color:#FCD160"/>
		<stop  offset="0.7942" style="stop-color:#FDD97C"/>
		<stop  offset="1" style="stop-color:#FDDC86"/>
	</linearGradient>
	<path id="XMLID_3442_" class="st5" d="M139.8,32.9c0,5.7-4.5,10.6-10.2,10.6c-5.5,0-9.4-4.6-9.4-9.9c0-5.3,4.9-9.5,9.6-9.5
		C134.9,24.1,139.8,27.8,139.8,32.9z M130.7,41.5c3.3,0,4.6-4,4.6-7.2c0-3.9-2-8.2-5.9-8.2c-3.2,0-4.9,3.6-4.9,6.7
		C124.6,36.8,126.6,41.5,130.7,41.5z"/>
	
		<linearGradient id="XMLID_24_" gradientUnits="userSpaceOnUse" x1="149.8066" y1="12.5908" x2="149.8066" y2="32.0233" gradientTransform="matrix(1 0 0 -1 0 56.11)">
		<stop  offset="1.685399e-002" style="stop-color:#FBC536"/>
		<stop  offset="0.4373" style="stop-color:#FCD160"/>
		<stop  offset="0.7942" style="stop-color:#FDD97C"/>
		<stop  offset="1" style="stop-color:#FDDC86"/>
	</linearGradient>
	<path id="XMLID_3463_" class="st6" d="M154.7,28.6v10.6c0,0.7,0.8,1.2,1.5,1.2c0.6,0,1.3-0.6,1.5-0.6s0.4,0.5,0.4,1
		c0,1.5-2.3,2.7-4,2.7c-1.4,0-2.5-1.1-3.1-1.8c-0.4-0.5-0.4-0.4-0.7-0.1c-1.1,1.1-2.9,1.9-4.5,1.9c-2.1,0-4.4-2-4.4-4.3
		c0-2.3,1.1-3.6,2.4-4.2l5.8-2.5c0.8-0.4,1.1-0.6,1.1-1.1v-2c0-1.5-1.7-2.7-3.2-2.7c-1,0-2,0.4-2,1.3c0,1.1,0,1.4-0.5,1.8
		c-0.2,0.1-2,1-2.5,1c-0.2,0-0.4-1.2-0.4-1.5c0-1.1,0.7-2.4,1.7-3c1.5-1.1,3.2-2.1,4.9-2.1C152.7,24.1,154.7,26.3,154.7,28.6z
		 M148.3,40.5c1.2,0,2.7-0.6,2.7-1.7v-4.2c0-0.5-0.5-0.5-1.1-0.4l-2.1,0.8c-1.5,0.5-2.3,1.4-2.3,2.1
		C145.7,39.6,146.7,40.5,148.3,40.5z"/>
	
		<linearGradient id="XMLID_25_" gradientUnits="userSpaceOnUse" x1="170.2952" y1="12.4133" x2="170.2952" y2="43.1758" gradientTransform="matrix(1 0 0 -1 0 56.11)">
		<stop  offset="1.685399e-002" style="stop-color:#FBC536"/>
		<stop  offset="0.4373" style="stop-color:#FCD160"/>
		<stop  offset="0.7942" style="stop-color:#FDD97C"/>
		<stop  offset="1" style="stop-color:#FDDC86"/>
	</linearGradient>
	<path id="XMLID_3477_" class="st7" d="M176.8,14.2v25.3c0,1.1,0.2,1.2,0.7,1.2c0.6,0,2-0.2,2.4-0.2c0.2,0,0.6,0.4,0.6,0.7
		c0,0.6-0.2,1-0.6,1.1c-0.8,0.4-5.2,1.4-5.8,1.4c-0.4,0-0.6-0.4-0.6-0.6c-0.1-0.5-0.2-1.1-0.4-1.7c-0.1-0.5-0.2-0.5-0.5,0
		c-1.1,1.4-2.7,2.1-4.5,2.1c-4.5,0-8.1-3.9-8.1-8.4c0-5.6,3.7-11,9.3-11c1.4,0,2.9,0.5,3.4,1.2c0.4,0.4,0.5,0.1,0.6-0.7V18
		c0-0.7-0.7-1.7-1.8-2c-0.5-0.1-1.1-0.5-1.1-1.1c0-0.6,0.7-0.8,1.3-1c1.8-0.4,4.3-1.1,4.8-1.1C176.8,13,176.8,13.3,176.8,14.2z
		 M169.7,40.6c1.8,0,3.4-1,3.4-2.7v-6.8c0-2.9-2.3-5.1-5-5.1c-3.1,0-4.2,3.7-4.2,6.9C164,36.8,165.9,40.6,169.7,40.6z"/>
	
		<linearGradient id="XMLID_26_" gradientUnits="userSpaceOnUse" x1="204.2645" y1="12.8589" x2="204.2645" y2="40.2772" gradientTransform="matrix(1 0 0 -1 0 56.11)">
		<stop  offset="1.685399e-002" style="stop-color:#FBC536"/>
		<stop  offset="0.4373" style="stop-color:#FCD160"/>
		<stop  offset="0.7942" style="stop-color:#FDD97C"/>
		<stop  offset="1" style="stop-color:#FDDC86"/>
	</linearGradient>
	<path id="XMLID_3487_" class="st8" d="M201.1,19.4h-5.5c-1.2,0-1.4,0.5-1.9,1.3c-0.5,0.8-0.8,2.1-1.4,2.1s-0.8-0.6-0.8-1.1
		c0-1.1,0.2-1.4,0.2-2.9c0-0.7-0.1-1.5-0.1-2c0-0.6,0.4-1.1,0.7-1.1c0.7,0,1.8,1.3,4.2,1.3h15.4c1.5,0,2.3-0.4,3.1-0.7
		c0.5-0.4,0.7-0.7,1.3-0.7c0.5,0,0.8,0.5,0.8,0.8s-0.1,1-0.1,1.9c0,1.1,0.1,2.6,0.1,3.1c0,0.7-0.1,1.1-0.6,1.1c-0.5,0-1.1-1.2-1.5-2
		c-0.4-0.7-1-1.2-1.5-1.2h-6.9c-0.5,0-0.5,1-0.5,1.4V38c0,1.7,0.6,2.5,2.1,3.2c1,0.5,2.5,0.7,2.5,1.3c0,0.5-1,0.7-1.4,0.7
		c-0.4,0-3.2-0.2-5.3-0.2s-4.8,0.2-5,0.2c-0.5,0-1.4-0.4-1.4-0.7c0-0.7,1.4-0.8,2.5-1.3c1.5-0.7,2.1-1.5,2.1-3.2V20.8
		C201.8,19.9,201.4,19.4,201.1,19.4z"/>
	
		<linearGradient id="XMLID_27_" gradientUnits="userSpaceOnUse" x1="223.4465" y1="12.8588" x2="223.4465" y2="32.3801" gradientTransform="matrix(1 0 0 -1 0 56.11)">
		<stop  offset="1.685399e-002" style="stop-color:#FBC536"/>
		<stop  offset="0.4373" style="stop-color:#FCD160"/>
		<stop  offset="0.7942" style="stop-color:#FDD97C"/>
		<stop  offset="1" style="stop-color:#FDDC86"/>
	</linearGradient>
	<path id="XMLID_3490_" class="st9" d="M217.6,43.3c-1.2,0-1.3-0.5-1.3-0.8c0-0.4,0.5-0.8,1.8-1.2c1.2-0.4,1.7-1.8,1.7-2.9v-8.6
		c0-0.7-0.7-1.9-1.8-2.3c-0.5-0.1-1-0.5-1-1s0.7-0.8,1.3-1.1c0.5-0.2,4.2-1.8,4.6-1.8c0.5,0,0.5,0.4,0.5,1.2V26c0,0.7,0.7,0,0.8-0.2
		c0.7-0.7,2.6-1.8,3.9-1.8c1.8,0,2.5,0.8,2.5,1.9c0,0.7-0.6,1.8-1.3,2.5c-0.1,0.1-0.5,0.4-0.7,0.4c-0.7,0-2-1.2-2.9-1.2
		c-1.1,0-2.3,1-2.3,2.1l-0.1,8.7c0,1.1,1,2.5,2.1,2.9c1.2,0.4,1.8,0.7,1.8,1.2s-0.4,0.8-1.5,0.8c-1,0-3.6-0.2-4.3-0.2
		C220.7,43,218.5,43.3,217.6,43.3z"/>
	
		<linearGradient id="XMLID_28_" gradientUnits="userSpaceOnUse" x1="240.0748" y1="12.5908" x2="240.0748" y2="32.0233" gradientTransform="matrix(1 0 0 -1 0 56.11)">
		<stop  offset="1.685399e-002" style="stop-color:#FBC536"/>
		<stop  offset="0.4373" style="stop-color:#FCD160"/>
		<stop  offset="0.7942" style="stop-color:#FDD97C"/>
		<stop  offset="1" style="stop-color:#FDDC86"/>
	</linearGradient>
	<path id="XMLID_3492_" class="st10" d="M245,28.6v10.6c0,0.7,0.8,1.2,1.5,1.2c0.6,0,1.3-0.6,1.5-0.6c0.2,0,0.4,0.5,0.4,1
		c0,1.5-2.3,2.7-4,2.7c-1.4,0-2.5-1.1-3.1-1.8c-0.4-0.5-0.4-0.4-0.7-0.1c-1.1,1.1-2.9,1.9-4.5,1.9c-2.1,0-4.4-2-4.4-4.3
		c0-2.3,1.1-3.6,2.4-4.2l5.8-2.5c0.8-0.4,1.1-0.6,1.1-1.1v-2c0-1.5-1.7-2.7-3.2-2.7c-1,0-2,0.4-2,1.3c0,1.1,0,1.4-0.5,1.8
		c-0.2,0.1-2,1-2.5,1c-0.2,0-0.4-1.2-0.4-1.5c0-1.1,0.7-2.4,1.7-3c1.5-1.1,3.2-2.1,4.9-2.1C243,24.1,245,26.3,245,28.6z M238.6,40.5
		c1.2,0,2.7-0.6,2.7-1.7v-4.2c0-0.5-0.5-0.5-1.1-0.4l-2.1,0.8c-1.5,0.5-2.3,1.4-2.3,2.1C236,39.6,236.9,40.5,238.6,40.5z"/>
	
		<linearGradient id="XMLID_29_" gradientUnits="userSpaceOnUse" x1="255.2186" y1="12.8569" x2="255.2186" y2="41.5616" gradientTransform="matrix(1 0 0 -1 0 56.11)">
		<stop  offset="1.685399e-002" style="stop-color:#FBC536"/>
		<stop  offset="0.4373" style="stop-color:#FCD160"/>
		<stop  offset="0.7942" style="stop-color:#FDD97C"/>
		<stop  offset="1" style="stop-color:#FDDC86"/>
	</linearGradient>
	<path id="XMLID_3507_" class="st11" d="M251.7,27.5c-0.5-0.1-1-0.5-1-1c0-0.5,0.7-0.8,1.3-1.1c0.5-0.2,4.2-1.8,4.6-1.8
		s0.5,0.4,0.5,1.3v13.3c0,1.1,0.5,2.5,1.7,2.9c1.2,0.4,1.9,0.7,1.9,1.2s-0.4,0.8-1.5,0.8c-1,0-3.2-0.2-3.9-0.2c-0.8,0-3,0.2-3.9,0.2
		c-1.2,0-1.5-0.5-1.5-0.8c0-0.4,0.7-0.8,1.9-1.2c1.2-0.4,1.7-1.8,1.7-2.9v-8.6C253.4,29,252.7,27.9,251.7,27.5z M257.5,17
		c0,1.4-1.1,2.5-2.5,2.5c-1.4,0-2.5-1.1-2.5-2.5c0-1.3,1.1-2.4,2.5-2.4C256.4,14.5,257.5,15.6,257.5,17z"/>
	
		<linearGradient id="XMLID_30_" gradientUnits="userSpaceOnUse" x1="267.4523" y1="12.8569" x2="267.4523" y2="43.1443" gradientTransform="matrix(1 0 0 -1 0 56.11)">
		<stop  offset="1.685399e-002" style="stop-color:#FBC536"/>
		<stop  offset="0.4373" style="stop-color:#FCD160"/>
		<stop  offset="0.7942" style="stop-color:#FDD97C"/>
		<stop  offset="1" style="stop-color:#FDDC86"/>
	</linearGradient>
	<path id="XMLID_3514_" class="st12" d="M264,15.9c-0.5-0.1-1.1-0.5-1.1-1.1c0-0.6,0.7-0.8,1.3-1c1.8-0.4,4.2-1.1,4.6-1.1
		s0.5,0.4,0.5,1.2v24.2c0,1.1,0.5,2.5,1.7,2.9c1.2,0.4,1.9,0.7,1.9,1.2s-0.4,0.8-1.5,0.8c-1,0-3.2-0.2-3.9-0.2c-0.8,0-3,0.2-3.9,0.2
		c-1.2,0-1.5-0.5-1.5-0.8c0-0.4,0.7-0.8,1.9-1.2c1.2-0.4,1.7-1.8,1.7-2.9V18C265.7,17.2,265.1,16.4,264,15.9z"/>
	
		<linearGradient id="XMLID_31_" gradientUnits="userSpaceOnUse" x1="278.2607" y1="12.7401" x2="278.2607" y2="30.9125" gradientTransform="matrix(1 0 0 -1 0 56.11)">
		<stop  offset="1.685399e-002" style="stop-color:#FBC536"/>
		<stop  offset="0.4373" style="stop-color:#FCD160"/>
		<stop  offset="0.7942" style="stop-color:#FDD97C"/>
		<stop  offset="1" style="stop-color:#FDDC86"/>
	</linearGradient>
	<path id="XMLID_3516_" class="st13" d="M281,27.9c0,1.5-1.4,2.6-3,2.6c-1.4,0-2.5-1.1-2.5-2.5c0-1.7,1.4-2.9,3.1-2.9
		C280,25.2,281,26.5,281,27.9z M281,40.8c0,1.5-1.4,2.6-3,2.6c-1.4,0-2.5-1.1-2.5-2.5c0-1.7,1.4-2.9,3.1-2.9
		C280,38,281,39.3,281,40.8z"/>
</g>
</svg>
