<?xml version="1.0" encoding="utf-8"?>
<!-- Generator: Adobe Illustrator 19.0.0, SVG Export Plug-In . SVG Version: 6.00 Build 0)  -->
<svg version="1.1" id="Layer_1" xmlns="http://www.w3.org/2000/svg" xmlns:xlink="http://www.w3.org/1999/xlink" x="0px" y="0px"
	 viewBox="-172 389.9 250 62" style="enable-background:new -172 389.9 250 62;" xml:space="preserve">
<style type="text/css">
	.st0{fill:#422611;stroke:#211309;stroke-width:3;stroke-miterlimit:10;}
	.st1{fill:url(#XMLID_2_);stroke:#211309;stroke-width:3;stroke-miterlimit:10;}
	.st2{fill:none;stroke:#442610;stroke-width:2;stroke-miterlimit:10;}
	.st3{fill:none;stroke:#211309;stroke-width:3;stroke-miterlimit:10;}
	.st4{fill:url(#XMLID_3_);}
	.st5{fill:url(#XMLID_4_);}
	.st6{fill:url(#XMLID_5_);}
	.st7{fill:url(#XMLID_6_);}
	.st8{fill:url(#XMLID_7_);}
	.st9{fill:url(#XMLID_8_);}
	.st10{fill:url(#XMLID_9_);}
	.st11{fill:url(#XMLID_10_);}
</style>
<g>
	<g id="XMLID_1672_">
		<g id="XMLID_1675_">
			<path id="XMLID_1677_" class="st0" d="M68.5,449.9h-230c-4.1,0-7.5-3.4-7.5-7.5v-43c0-4.1,3.4-7.5,7.5-7.5h230
				c4.1,0,7.5,3.4,7.5,7.5v43C76,446.5,72.5,449.9,68.5,449.9z"/>
			
				<linearGradient id="XMLID_2_" gradientUnits="userSpaceOnUse" x1="-46.5" y1="438.6101" x2="-46.5" y2="392.11" gradientTransform="matrix(1 0 0 1 0 -0.22)">
				<stop  offset="0" style="stop-color:#51301A"/>
				<stop  offset="1" style="stop-color:#693B1D"/>
			</linearGradient>
			<path id="XMLID_1676_" class="st1" d="M68.5,438.4h-230c-4.1,0-7.5-3.4-7.5-7.5v-31.5c0-4.1,3.4-7.5,7.5-7.5h230
				c4.1,0,7.5,3.4,7.5,7.5v31.5C76,435,72.5,438.4,68.5,438.4z"/>
		</g>
		<g id="XMLID_1231_">
			<path id="XMLID_2264_" class="st2" d="M-111.9,415.5c-18.7,0.8-39.1,1.6-58.1,2.5v12.5c17-0.7,34.5-1.3,50.4-2
				c14-0.6,28.5-1.1,42.4,0c13.3,1.1,26.6,3.8,39.6,6.2c5.6,1.1,11.6,3,17.4,3H51c-41.6-8-82.6-21.4-125.4-23
				C-86.8,414.5-99.5,415-111.9,415.5z"/>
			<path id="XMLID_2265_" class="st2" d="M-76.6,428.6c-13.9-1.2-28.9-0.6-42.9,0c-15.9,0.7-33.4,1.3-50.4,2v1.3c0,3.3,5.3,6,9.5,6
				h140.3c-5.8,0-11.5-2-17.1-3C-50.4,432.4-63.4,429.7-76.6,428.6z"/>
			<path id="XMLID_2267_" class="st2" d="M-16,398.6c6.7,0.7,13.6,1.3,20.3,0.7c5.7-0.5,11.2-1.8,16.6-3.2
				c6.3-1.6,12.7-2.2,19.3-4.2H-98C-70.5,394.9-43,395.8-16,398.6z"/>
			<path id="XMLID_2268_" class="st2" d="M4.3,399.3c-6.8,0.6-13.6,0-20.3-0.7c-26.9-2.8-54.4-3.7-82-6.7h-62.4
				c-4.1,0-9.5,2.4-9.5,5.7v1.1c18,0.8,36.8,0.8,54.7,0c12.1-0.5,24.7-1.4,36.8-0.5c18.5,1.3,36.5,6.8,55,8.3
				c17.2,1.4,34.7-0.7,51.7-3.7c15.1-2.7,29.9-5.7,45.8-8.7c-1.4-1.2-2.2-2.1-4.4-2.1H40.2c-6.5,2-13,2.6-19.3,4.2
				C15.5,397.5,10,398.7,4.3,399.3z"/>
			<path id="XMLID_2269_" class="st2" d="M-23.3,406.4c-18.5-1.5-36.2-6.9-54.7-8.3c-12.1-0.9-25.2,0-37.3,0.5
				c-17.9,0.8-36.7,0.8-54.7,0v6.3c38-1.9,76.4,1.2,113.2,4.4c13.4,1.1,27.4,2.3,40.8,3.4c7,0.6,14.2,1.2,21.1,2.5
				c8.5,1.7,15.7,4.5,23.9,6.9c14.6,4.4,30,7.6,46,9.6v-8.8c-5-1-8.8-2-13.6-3.3c-6.7-1.7-17.6-6.9-12.5-10.8
				c-3,2.2,5.6,9,12.3,10.8c4.8,1.3,8.8,2.4,13.8,3.3v-5.4c-2-0.5-3.1-1.2-4.5-2.5c-1.7-1.6-3-3.2-1.9-4.7c-1.3,1.9,0,3,1.7,4.7
				c1.4,1.3,2.7,2,4.7,2.5v-12.7c-2,1.6-5.2,3.4-7.3,5.5c2.1-2.1,5.3-3.9,7.3-5.5v-6c0,0.1-0.1,0.3-0.6,0.4
				c-9.2,2.2-18.3,4.6-25.5,9.7c7.2-5.1,16-7.5,25.3-9.7c0.5-0.1,0.9-0.3,0.9-0.4v-1.2c0-1.5-0.8-2.7-2-3.8c-16,3-30.2,6.2-45.3,8.9
				C10.8,405.7-6,407.8-23.3,406.4z"/>
			<path id="XMLID_2270_" class="st2" d="M5.3,415.3c-6.8-1.3-13.8-1.9-20.8-2.5c-13.4-1.1-27.9-2.3-41.3-3.4
				c-36.7-3.1-75.2-6.3-113.2-4.4v13.1c19-0.8,39.4-1.6,58.1-2.5c12.3-0.5,25.1-1.1,37.5-0.6c42.8,1.6,83.7,15,125.4,23h18.6
				c4.1,0,5.5-2.7,5.5-6v-0.1c-16-2-31.2-5.2-45.9-9.6C21,419.8,13.8,416.9,5.3,415.3z"/>
		</g>
		<g id="XMLID_1657_">
			<path id="XMLID_1659_" class="st3" d="M68.5,449.9h-230c-4.1,0-7.5-3.4-7.5-7.5v-43c0-4.1,3.4-7.5,7.5-7.5h230
				c4.1,0,7.5,3.4,7.5,7.5v43C76,446.5,72.5,449.9,68.5,449.9z"/>
			<path id="XMLID_1658_" class="st3" d="M68.5,438.4h-230c-4.1,0-7.5-3.4-7.5-7.5v-31.5c0-4.1,3.4-7.5,7.5-7.5h230
				c4.1,0,7.5,3.4,7.5,7.5v31.5C76,435,72.5,438.4,68.5,438.4z"/>
		</g>
	</g>
	<g>
		<g id="XMLID_48_">
			
				<linearGradient id="XMLID_3_" gradientUnits="userSpaceOnUse" x1="-118.35" y1="413.1177" x2="-118.35" y2="437.353" gradientTransform="matrix(1 0 0 -1 0 841.67)">
				<stop  offset="1.685399e-002" style="stop-color:#FBC536"/>
				<stop  offset="0.4373" style="stop-color:#FCD15F"/>
				<stop  offset="0.7942" style="stop-color:#FDD97B"/>
				<stop  offset="1" style="stop-color:#FDDC86"/>
			</linearGradient>
			<path id="XMLID_269_" class="st4" d="M-108.7,405c0-0.5,0.8-0.7,1.4-0.7s2.3,0.2,2.9,0.2s2-0.2,2.6-0.2s1.4,0.2,1.4,0.7
				c0,0.4-0.3,0.6-0.7,0.7c-1.8,0.6-2.6,1.9-3.2,3.7l-5,13.7c-0.7,1.8-2.1,5.4-2.6,5.4c-0.3,0-0.9-1.1-1.5-2.8l-4.8-12.8l-3.7,10.2
				c-0.7,1.8-2.1,5.4-2.6,5.4c-0.3,0-0.9-1.1-1.5-2.8l-6.1-16.2c-0.7-1.8-1.1-3.1-3.6-3.9c-0.4-0.1-0.6-0.3-0.6-0.7
				c0-0.5,0.8-0.7,1.4-0.7c1.6,0,1.7,0.2,3.2,0.2c1.4,0,3.6-0.2,5-0.2c0.6,0,1.4,0.2,1.4,0.7c0,0.4-0.2,0.6-0.6,0.7
				c-1.7,0.6-3.2,1.3-2.5,3l4.8,12.8c0.2,0.6,0.3,0.6,0.5,0l4.1-11.2l-0.3-0.7c-0.7-1.8-1.2-3.4-2.9-3.9c-0.4-0.1-0.6-0.3-0.6-0.7
				c0-0.5,0.8-0.7,1.4-0.7c1.6,0,1.7,0.2,3.2,0.2c1.4,0,2.9-0.2,4.2-0.2c0.6,0,1.4,0.2,1.4,0.7c0,0.4-0.2,0.6-0.6,0.7
				c-1.7,0.6-3.2,1.3-2.5,3l4.8,12.8c0.2,0.6,0.3,0.6,0.5,0l4.2-11.7c0.9-2.8,0.1-3.5-1.6-4.1C-108.4,405.6-108.7,405.4-108.7,405z"
				/>
			
				<linearGradient id="XMLID_4_" gradientUnits="userSpaceOnUse" x1="-94.25" y1="413.6372" x2="-94.25" y2="439.5372" gradientTransform="matrix(1 0 0 -1 0 841.67)">
				<stop  offset="1.685399e-002" style="stop-color:#FBC536"/>
				<stop  offset="0.4373" style="stop-color:#FCD15F"/>
				<stop  offset="0.7942" style="stop-color:#FDD97B"/>
				<stop  offset="1" style="stop-color:#FDDC86"/>
			</linearGradient>
			<path id="XMLID_271_" class="st5" d="M-97.6,413.8c-0.4-0.2-0.8-0.4-0.8-0.8s0.6-0.8,1.2-1c0.4-0.2,3.8-1.6,4.2-1.6
				c0.5,0,0.5,0.4,0.5,1.2v12c0,1,0.4,2.2,1.5,2.6s1.7,0.6,1.7,1s-0.3,0.8-1.4,0.8c-0.9,0-2.9-0.2-3.5-0.2c-0.8,0-2.7,0.2-3.6,0.2
				c-1,0-1.4-0.4-1.4-0.8s0.7-0.7,1.8-1c1.1-0.3,1.5-1.6,1.5-2.6v-7.8C-96,415.2-96.7,414.2-97.6,413.8z M-92.4,404.3
				c0,1.2-1,2.2-2.2,2.2s-2.2-1-2.2-2.2s1-2.2,2.2-2.2S-92.4,403.1-92.4,404.3z"/>
			
				<linearGradient id="XMLID_5_" gradientUnits="userSpaceOnUse" x1="-78.1" y1="413.6372" x2="-78.1" y2="431.2372" gradientTransform="matrix(1 0 0 -1 0 841.67)">
				<stop  offset="1.685399e-002" style="stop-color:#FBC536"/>
				<stop  offset="0.4373" style="stop-color:#FCD15F"/>
				<stop  offset="0.7942" style="stop-color:#FDD97B"/>
				<stop  offset="1" style="stop-color:#FDDC86"/>
			</linearGradient>
			<path id="XMLID_274_" class="st6" d="M-69.4,426.2c1.1,0.3,1.4,0.6,1.4,1s0,0.8-1.1,0.8c-0.9,0-2.9-0.2-3.5-0.2
				c-0.8,0-2.1,0.2-3,0.2c-1,0-1.2-0.4-1.2-0.8s0.5-0.7,1.6-1c0.7-0.2,0.9-1.6,0.9-2.6v-6.1c0-2.4-1.4-4.7-3.5-4.7
				c-2.3,0-3.9,1.4-3.9,4.4v6.4c0,1,0.2,2.3,0.9,2.6c1.1,0.3,1.5,0.6,1.5,1s-0.1,0.8-1.2,0.8c-0.9,0-2.3-0.2-2.9-0.2
				c-0.8,0-2.7,0.2-3.6,0.2c-1,0-1.2-0.4-1.2-0.8s0.5-0.7,1.6-1s1.5-1.6,1.5-2.6v-7.8c0-0.7-0.7-1.7-1.6-2c-0.4-0.2-0.8-0.4-0.8-0.8
				s0.6-0.8,1.2-1c0.5-0.2,3.8-1.6,4.2-1.6c0.5,0,0.5,0.4,0.5,1.1v1c0,0.6,0.5,0,0.8-0.2c1.3-1.1,2.9-1.6,5-1.6c2.8,0,5,2.6,5,5.6
				v7.2C-70.9,424.6-70.5,425.9-69.4,426.2z"/>
			
				<linearGradient id="XMLID_6_" gradientUnits="userSpaceOnUse" x1="-56.95" y1="413.2378" x2="-56.95" y2="440.9526" gradientTransform="matrix(1 0 0 -1 0 841.67)">
				<stop  offset="1.685399e-002" style="stop-color:#FBC536"/>
				<stop  offset="0.4373" style="stop-color:#FCD15F"/>
				<stop  offset="0.7942" style="stop-color:#FDD97B"/>
				<stop  offset="1" style="stop-color:#FDDC86"/>
			</linearGradient>
			<path id="XMLID_276_" class="st7" d="M-50.9,401.8v22.8c0,0.9,0.2,1.1,0.6,1.1c0.5,0,1.8-0.2,2.2-0.2c0.2,0,0.5,0.4,0.5,0.6
				c0,0.5-0.2,0.8-0.5,1c-0.7,0.4-4.7,1.3-5.3,1.3c-0.3,0-0.5-0.4-0.6-0.6c-0.1-0.4-0.2-0.9-0.4-1.5c-0.1-0.4-0.2-0.4-0.5,0
				c-0.9,1.3-2.5,2-4.1,2c-4.1,0-7.3-3.5-7.3-7.6c0-5,3.3-9.9,8.3-9.9c1.3,0,2.6,0.5,3.1,1c0.4,0.3,0.4,0.1,0.5-0.6v-5.9
				c0-0.7-0.7-1.5-1.6-1.8c-0.4-0.2-0.9-0.5-0.9-0.9s0.6-0.8,1.2-0.8c1.6-0.3,3.8-1,4.2-1C-50.9,400.7-50.9,401-50.9,401.8z
				 M-57.4,425.7c1.6,0,3.1-0.9,3.1-2.5v-6.1c0-2.5-2-4.6-4.5-4.6c-2.8,0-3.8,3.4-3.8,6.2C-62.5,422.2-60.8,425.7-57.4,425.7z"/>
			
				<linearGradient id="XMLID_7_" gradientUnits="userSpaceOnUse" x1="-37.75" y1="413.38" x2="-37.75" y2="430.8976" gradientTransform="matrix(1 0 0 -1 0 841.67)">
				<stop  offset="1.685399e-002" style="stop-color:#FBC536"/>
				<stop  offset="0.4373" style="stop-color:#FCD15F"/>
				<stop  offset="0.7942" style="stop-color:#FDD97B"/>
				<stop  offset="1" style="stop-color:#FDDC86"/>
			</linearGradient>
			<path id="XMLID_279_" class="st8" d="M-28.9,418.8c0,5.2-4.1,9.5-9.2,9.5c-4.9,0-8.5-4.2-8.5-8.9c0-4.8,4.4-8.6,8.7-8.6
				C-33.3,410.8-28.9,414.1-28.9,418.8z M-37,426.4c3,0,4.2-3.6,4.2-6.6c0-3.6-1.8-7.4-5.3-7.4c-2.9,0-4.4,3.2-4.4,6
				C-42.6,422.2-40.8,426.4-37,426.4z"/>
			
				<linearGradient id="XMLID_8_" gradientUnits="userSpaceOnUse" x1="-15.1" y1="413.1577" x2="-15.1" y2="430.6343" gradientTransform="matrix(1 0 0 -1 0 841.67)">
				<stop  offset="1.685399e-002" style="stop-color:#FBC536"/>
				<stop  offset="0.4373" style="stop-color:#FCD15F"/>
				<stop  offset="0.7942" style="stop-color:#FDD97B"/>
				<stop  offset="1" style="stop-color:#FDDC86"/>
			</linearGradient>
			<path id="XMLID_282_" class="st9" d="M-8.5,411.8c0-0.4,0.4-0.8,1-0.8s1.6,0.2,2.2,0.2S-4,411-3.4,411s1,0.4,1,0.8
				s-0.8,0.7-1.4,0.9c-0.4,0.2-1.2,0.9-1.7,2.3l-3.2,8c-0.7,1.7-1.8,5.5-2.5,5.5c-0.4,0-0.8-0.9-1-1.6l-3.1-8.2L-17,423
				c-0.7,1.7-1.8,5.5-2.5,5.5c-0.4,0-0.8-0.9-1-1.6l-4.4-11.6c-0.4-1-1-2.3-1.6-2.5s-1.3-0.5-1.3-0.9s0.3-0.8,1-0.8
				c0.6,0,2,0.2,2.6,0.2s2.3-0.2,2.9-0.2s1,0.4,1,0.8s-0.5,0.7-1.4,1c-0.2,0-0.4,0.6-0.2,1l2.8,7.3c0.2,0.4,0.5,1.6,0.8,1.6
				s0.6-1.2,0.7-1.6l1.6-4.4l-0.6-1.4c-0.4-1-1-2.3-1.6-2.5s-1.3-0.5-1.3-0.9s0.3-0.8,1-0.8c0.6,0,2,0.2,2.6,0.2s2.8-0.2,3.4-0.2
				c0.6,0,1,0.4,1,0.8s-0.5,0.8-1.2,1.1c-0.5,0.2-0.9,0.7-0.6,1.6l2.6,6.6c0.2,0.4,0.5,1.5,0.8,1.5s0.6-1.1,0.7-1.5l2.2-6
				c0.3-0.8,0.4-1.4,0.4-1.6c0-0.4-0.4-0.7-0.7-0.7C-8,412.6-8.5,412.2-8.5,411.8z"/>
			
				<linearGradient id="XMLID_9_" gradientUnits="userSpaceOnUse" x1="3.15" y1="413.3969" x2="3.15" y2="430.9145" gradientTransform="matrix(1 0 0 -1 0 841.67)">
				<stop  offset="1.685399e-002" style="stop-color:#FBC536"/>
				<stop  offset="0.4373" style="stop-color:#FCD15F"/>
				<stop  offset="0.7942" style="stop-color:#FDD97B"/>
				<stop  offset="1" style="stop-color:#FDDC86"/>
			</linearGradient>
			<path id="XMLID_284_" class="st10" d="M7,411.7c0.3,0.1,0.3,0.2,0.4,0.6s0.2,1.6,0.2,2c0,0.5,0,0.9-0.5,0.9c-0.4,0-1-0.2-1.2-1
				c-0.3-1-1.5-1.6-2.7-1.6c-1,0-1.8,0.7-1.8,1.7c0,1.1,0.8,1.8,1.7,2.4l3.3,2.5c1.1,0.8,1.9,1.8,1.9,3.2c0,3.4-2.8,5.8-6,5.8
				c-1.1,0-2.2-0.2-2.6-0.3c-0.6-0.2-0.8-0.3-1-0.8s-0.7-1.9-0.7-2.5c0-0.7,0-1.3,0.4-1.3s1.2,0.4,1.8,1.6c0.5,1.1,1.8,1.5,3.1,1.5
				c1.2,0,2.4-0.8,2.4-2c0-1.8-0.8-2.2-1.8-2.9L2,420.1c-1.8-1.3-3.4-2.5-3.4-4.5c0-2.7,2.3-5,5.1-5C4.9,410.8,5.8,411.2,7,411.7z"
				/>
		</g>
		
			<linearGradient id="XMLID_10_" gradientUnits="userSpaceOnUse" x1="31.25" y1="415.64" x2="31.25" y2="437.94" gradientTransform="matrix(1 0 0 -1 0 841.67)">
			<stop  offset="1.685399e-002" style="stop-color:#FBC536"/>
			<stop  offset="0.4373" style="stop-color:#FCD15F"/>
			<stop  offset="0.7942" style="stop-color:#FDD97B"/>
			<stop  offset="1" style="stop-color:#FDDC86"/>
		</linearGradient>
		<path id="XMLID_18_" class="st11" d="M20.2,406.9l9.1-1.2v8.8l-9.1,0.1V406.9z M29.2,415.4v8.8l-9.1-1.2v-7.6L29.2,415.4
			L29.2,415.4z M30.3,405.5l12-1.8v10.6l-12,0.1V405.5z M42.4,415.5V426l-12-1.7v-8.8H42.4z"/>
	</g>
</g>
</svg>
